<svg version="1.1" xmlns="http://www.w3.org/2000/svg" viewBox="0 0 1355.14500146523 1166.6467021640824" width="2710.29000293046" height="2333.293404328165">
  <!-- svg-source:excalidraw -->
  
  <defs>
    <style class="style-fonts">
      @font-face {
        font-family: "Virgil";
        src: url("https://excalidraw.com/Virgil.woff2");
      }
      @font-face {
        font-family: "Cascadia";
        src: url("https://excalidraw.com/Cascadia.woff2");
      }
    </style>
  </defs>
  <rect x="0" y="0" width="1355.14500146523" height="1166.6467021640824" fill="#ffffff"></rect><g stroke-opacity="0.3" fill-opacity="0.3" transform="translate(966.1528091394703 995.6489493730066) rotate(0 115.5 23)"><text x="115.5" y="32" font-family="Virgil, Segoe UI Emoji" font-size="36px" fill="#d9480f" text-anchor="middle" style="white-space: pre;" direction="ltr">@hemashushu</text></g><g stroke-linecap="round" transform="translate(445.0359752038635 464.43447551004107) rotate(0 203.37065631842688 75.5)"><path d="M39.44 0.23 L368.92 1.42 L386.94 1.65 L398.39 8.91 L405.3 22.57 L408.06 28.02 L408.53 114.4 L403.24 128.83 L403.21 135.19 L393.42 144.17 L386.19 146.91 L367.24 149.9 L36.19 151.16 L20.26 146.91 L15.78 146.71 L5.87 137.23 L-0.83 120.76 L1.35 28.66 L4.58 13.04 L10.04 11.25 L20.62 0.92 L35.93 -1.3" stroke="none" stroke-width="0" fill="#fff"></path><path d="M37.75 0 M37.75 0 C159.13 1.18, 278.93 1.73, 368.99 0 M37.75 0 C159.65 -1.09, 280.9 -0.64, 368.99 0 M368.99 0 C395.94 0.48, 406.76 12.2, 406.74 37.75 M368.99 0 C395.96 -0.59, 406.74 14.35, 406.74 37.75 M406.74 37.75 C408.33 53.48, 404.97 73.38, 406.74 113.25 M406.74 37.75 C406.11 54.65, 407.66 71.17, 406.74 113.25 M406.74 113.25 C406.15 137.29, 396 152.83, 368.99 151 M406.74 113.25 C407.93 137.9, 392.85 151.48, 368.99 151 M368.99 151 C255.91 149.82, 143.06 150.52, 37.75 151 M368.99 151 C255.01 153.12, 140.29 152.35, 37.75 151 M37.75 151 C10.62 149.22, 1.56 140.06, 0 113.25 M37.75 151 C11.8 149.73, 0.93 137.32, 0 113.25 M0 113.25 C1.04 95.14, 0.9 73.93, 0 37.75 M0 113.25 C-0.79 89.58, 0.22 65.16, 0 37.75 M0 37.75 C-0.69 11.43, 13.85 1.95, 37.75 0 M0 37.75 C1.57 12.14, 10.37 1.42, 37.75 0" stroke="#1864ab" stroke-width="4" fill="none"></path></g><g stroke-linecap="round"><g transform="translate(446.9349652979478 524.2317965600644) rotate(0 5.049252652923343 11.500303376037635)"><path d="M-0.86 -0.39 C0.87 0.48, 8.92 3.19, 10.37 6.18 C11.82 9.17, 9.35 14.57, 7.83 17.54 C6.3 20.52, 2.41 22.83, 1.21 24.05 M0.89 -1.65 C2.46 -1.16, 7.87 1.3, 9.43 4.64 C11 7.98, 11.52 15.05, 10.25 18.38 C8.98 21.72, 3.67 23.52, 1.83 24.65" stroke="#1864ab" stroke-width="1" fill="none"></path></g></g><g stroke-linecap="round"><g transform="translate(484.8081993647238 618.7892221913759) rotate(0 -0.7134605099680584 13.233690442948472)"><path d="M0.02 0.24 C-0.02 4.67, -0.13 22.93, -0.4 27.15 M-1.44 -0.68 C-1.53 3.38, -0.62 20.97, -0.77 25.5" stroke="#1864ab" stroke-width="1" fill="none"></path></g></g><g stroke-linecap="round"><g transform="translate(519.0691551150442 617.686974988933) rotate(0 0.5854040610095694 46.064689426705115)"><path d="M1.01 0.93 C1.13 16.1, 1.16 75.49, 0.88 90.57 M0.08 0.38 C0.1 15.72, 0.7 76.35, 0.39 91.75" stroke="#1864ab" stroke-width="1" fill="none"></path></g></g><g stroke-linecap="round"><g transform="translate(558.164647816259 619.109034221721) rotate(0 -1.0688289444325392 64.9814561186887)"><path d="M-0.07 0.04 C-0.06 21.74, -0.98 109.14, -0.92 130.95 M-1.57 -0.99 C-1.65 20.32, -2.27 107.6, -1.99 129.26" stroke="#1864ab" stroke-width="1" fill="none"></path></g></g><g stroke-linecap="round"><g transform="translate(594.4257671500343 617.5976029606951) rotate(0 -0.7327295747699054 96.52506754538157)"><path d="M0.54 -0.17 C0.2 31.92, -1.59 160.79, -2.01 192.96 M-0.63 -1.31 C-0.59 30.93, 0.77 161.8, 0.36 194.36" stroke="#1864ab" stroke-width="1" fill="none"></path></g></g><g stroke-linecap="round"><g transform="translate(632.3291668380458 618.6201809379655) rotate(0 -0.5775745484295953 99.78441422015459)"><path d="M-0.9 -0.96 C-1.33 32.28, -1.87 165.96, -1.98 199.61 M0.83 1.16 C0.74 34.48, 0.96 167, 0.41 200.52" stroke="#1864ab" stroke-width="1" fill="none"></path></g></g><g stroke-linecap="round"><g transform="translate(669.1644257706174 617.6998712336075) rotate(0 -0.9322765720399957 83.99317181160254)"><path d="M-0.11 -0.54 C-0.31 27.45, 0.04 138.98, -0.2 167.18 M-1.63 1.79 C-2.04 30.02, -1.35 141.01, -0.94 168.53" stroke="#1864ab" stroke-width="1" fill="none"></path></g></g><g stroke-linecap="round"><g transform="translate(707.9956338442177 618.725240950958) rotate(0 0.20106224746251655 65.59281190182537)"><path d="M-0.26 -0.14 C-0.45 21.7, -0.49 109.22, -0.76 131.4 M1.8 -1.25 C1.48 20.68, -0.62 110.4, -1.4 132.44" stroke="#1864ab" stroke-width="1" fill="none"></path></g></g><g stroke-linecap="round"><g transform="translate(745.225186238989 619.3232822058847) rotate(0 0.09870838778357438 49.48022388537274)"><path d="M-0.91 -0.16 C-1 16.25, -1.2 82.33, -1.13 99.21 M0.81 -1.29 C1.16 15.17, 1.55 83.49, 1.2 100.25" stroke="#1864ab" stroke-width="1" fill="none"></path></g></g><g stroke-linecap="round"><g transform="translate(780.7768404815481 617.3973856431473) rotate(0 -0.03544718947114234 33.7485459248567)"><path d="M-0.87 0.06 C-1.02 11.34, -0.17 57.33, -0.33 68.46 M0.87 -0.96 C0.58 9.94, -0.9 55.37, -0.94 66.82" stroke="#1864ab" stroke-width="1" fill="none"></path></g></g><g stroke-linecap="round"><g transform="translate(815.3955245708859 619.802008662172) rotate(0 0.7651252629571559 18.352420572780687)"><path d="M-0.31 1.03 C0.11 6.95, 1.44 30.59, 1.38 36.18 M1.73 0.52 C2.18 6.09, 1 28.82, 0.99 34.69" stroke="#1864ab" stroke-width="1" fill="none"></path></g></g><g transform="translate(517.8236846676235 507.22115765420887) rotate(0 138 22)"><text x="0" y="35" font-family="Cascadia, Segoe UI Emoji" font-size="36px" fill="#1864ab" text-anchor="start" style="white-space: pre;" direction="ltr">STM32F042F6P6</text></g><g transform="translate(598.4145448341836 552.2161173230779) rotate(0 46 11.5)"><text x="0" y="18" font-family="Helvetica, Segoe UI Emoji" font-size="20px" fill="#1864ab88" text-anchor="start" style="white-space: pre;" direction="ltr">TSSOP20</text></g><g transform="translate(477.7901331780075 584.8785915670223) rotate(0 174.5 10)"><text x="0" y="16" font-family="Cascadia, Segoe UI Emoji" font-size="16px" fill="#1864ab88" text-anchor="start" style="white-space: pre;" direction="ltr">1   2   3   4   5   6   7   8   9  10</text></g><g transform="translate(474.23533563637443 476.1282458368105) rotate(0 179 10)"><text x="0" y="16" font-family="Cascadia, Segoe UI Emoji" font-size="16px" fill="#1864ab88" text-anchor="start" style="white-space: pre;" direction="ltr">20  19  18  17  16  15  14  13  12  11</text></g><g stroke-linecap="round"><g transform="translate(486.25924086833584 325.13662730923505) rotate(0 -0.13438170234672953 67.24834683310452)"><path d="M0.71 -0.79 C0.58 21.49, -1.17 111.45, -1.18 133.68 M-0.38 1.41 C-0.13 23.91, 0.82 113.29, 0.91 135.29" stroke="#1864ab" stroke-width="1" fill="none"></path></g></g><g stroke-linecap="round"><g transform="translate(520.520196618656 294.74643587934145) rotate(0 0.10517177682368128 81.13688613020712)"><path d="M-0.79 -1.18 C-0.76 25.94, 0.17 136.29, 0.14 163.45 M1 0.81 C0.88 27.53, -0.81 134.7, -0.74 161.66" stroke="#1864ab" stroke-width="1" fill="none"></path></g></g><g stroke-linecap="round"><g transform="translate(562.6574921217136 234.89530334642978) rotate(0 -1.3167970486073273 111.65159292480999)"><path d="M-1.18 0.14 C-1.7 37.45, -1.93 185.93, -2.42 223.12 M0.4 -0.84 C-0.29 36.67, -2.68 186.64, -3.03 224.14" stroke="#1864ab" stroke-width="1" fill="none"></path></g></g><g stroke-linecap="round"><g transform="translate(599.3825156482833 269.58982313082015) rotate(0 -1.943668681336078 94.77563461277481)"><path d="M0.14 0.63 C-0.4 32.26, -3.36 157.05, -4.02 188.64 M-1.25 -0.09 C-1.36 31.77, -1.81 158.28, -1.83 189.64" stroke="#1864ab" stroke-width="1" fill="none"></path></g></g><g stroke-linecap="round"><g transform="translate(632.4706623410868 301.57886111761945) rotate(0 -0.47242828331138753 78.3169332685161)"><path d="M0.63 -0.98 C0.56 25.08, -1.46 129.98, -1.57 156.5 M-0.5 1.12 C-0.1 27.3, 0.61 131.76, 0.6 157.62" stroke="#1864ab" stroke-width="1" fill="none"></path></g></g><g stroke-linecap="round"><g transform="translate(672.5532506232187 376.48022194973214) rotate(0 0.20344570254394512 40.716468188036515)"><path d="M-0.98 -1.03 C-1.14 12.61, -1.11 68.75, -0.81 82.46 M0.7 1.05 C0.92 14.27, 1.52 67.08, 1.48 80.6" stroke="#1864ab" stroke-width="1" fill="none"></path></g></g><g stroke-linecap="round"><g transform="translate(708.1371293472588 418.543066040371) rotate(0 -0.19799926669099932 20.235628177812544)"><path d="M-1.03 -0.81 C-1.14 6.24, 0 34.55, -0.04 41.28 M0.64 1.38 C0.36 8.18, -0.22 33.09, -0.72 39.59" stroke="#1864ab" stroke-width="1" fill="none"></path></g></g><g stroke-linecap="round"><g transform="translate(747.7683692838136 423.5918400379605) rotate(0 0.08415005408471643 17.868455436958456)"><path d="M-0.81 0.51 C-0.69 6.48, -0.06 29.05, -0.26 34.84 M0.97 -0.27 C1.09 5.94, -0.68 29.89, -0.78 36.01" stroke="#1864ab" stroke-width="1" fill="none"></path></g></g><g stroke-linecap="round"><g transform="translate(782.8561193335782 420.24513562276223) rotate(0 -0.5965617690313252 19.58793468035232)"><path d="M0.51 0.83 C0.38 7.28, -1.48 31.52, -1.79 37.9 M-0.69 0.22 C-0.33 6.86, 0.82 32.23, 0.56 38.96" stroke="#1864ab" stroke-width="1" fill="none"></path></g></g><g stroke-linecap="round"><g transform="translate(816.8465660744979 414.1060547417874) rotate(0 0.20446109650930566 21.79409732542011)"><path d="M0.83 -0.7 C0.81 6.37, -0.82 35.65, -0.91 42.9 M-0.2 1.55 C0.23 8.75, 1.34 37.23, 1.32 44.29" stroke="#1864ab" stroke-width="1" fill="none"></path></g></g><g stroke-linecap="round"><g transform="translate(483.8056184809071 645.0386063636527) rotate(0 -207.38490048853626 -1.236097556639976)"><path d="M-1.08 -0.27 C-70.16 -0.72, -345.44 -2.21, -414.49 -2.2 M0.56 -1.46 C-68.67 -1.85, -346.42 -1.13, -415.33 -1.25" stroke="#1864ab" stroke-width="2" fill="none"></path></g></g><g transform="translate(395.85426452432705 618.6163405968184) rotate(0 28 9.5)"><text x="0" y="15" font-family="Helvetica, Segoe UI Emoji" font-size="16px" fill="#1864ab" text-anchor="start" style="white-space: pre;" direction="ltr">BOOT0</text></g><g stroke-linecap="round"><g transform="translate(155.47526535238 644.0373159217445) rotate(0 0.09050228254412218 17.267598644565226)"><path d="M0.59 0.06 C0.65 5.83, 0.84 28.52, 0.68 34 M-0.56 -0.96 C-0.63 5.07, 0.22 29.73, 0.09 35.49" stroke="#1864ab" stroke-width="2" fill="none"></path></g></g><g stroke-linecap="round" transform="translate(149.4597800494803 699.0837718304438) rotate(0 6.26613052385386 22.307424664919722)"><path d="M3.13 0 M3.13 0 C5.5 -0.31, 6.88 -0.57, 9.4 0 M3.13 0 C5.44 -0.27, 8.28 0.19, 9.4 0 M9.4 0 C12.43 -0.57, 13.31 -0.76, 12.53 3.13 M9.4 0 C12.47 -0.46, 13.43 -1.09, 12.53 3.13 M12.53 3.13 C12.92 11.08, 14.01 19.27, 12.53 41.48 M12.53 3.13 C11.72 10.67, 11.47 19.13, 12.53 41.48 M12.53 41.48 C11.91 44.08, 9.93 43.14, 9.4 44.61 M12.53 41.48 C14.38 41.63, 11.36 45.62, 9.4 44.61 M9.4 44.61 C7.68 44.71, 4.87 43.98, 3.13 44.61 M9.4 44.61 C7.26 44.37, 5.68 44.91, 3.13 44.61 M3.13 44.61 C1.43 44.48, 0.51 43.73, 0 41.48 M3.13 44.61 C1.03 44.54, 0.95 43.73, 0 41.48 M0 41.48 C-1.73 31.52, -0.42 25.76, 0 3.13 M0 41.48 C-0.18 30.6, 0.6 19.63, 0 3.13 M0 3.13 C-1.59 2.97, 1.7 0.97, 3.13 0 M0 3.13 C-2.2 2.9, 2.48 0.18, 3.13 0" stroke="#5c940d" stroke-width="2" fill="none"></path></g><g stroke-linecap="round"><g transform="translate(155.97655579428834 760.1935198413598) rotate(0 0.11929316968512182 19.43754972454957)"><path d="M-0.78 -1.18 C-0.63 5.31, 0.39 33.35, 0.56 40.05 M1.01 0.82 C1.08 7.49, 0.14 31.82, -0.1 38.41" stroke="#1864ab" stroke-width="2" fill="none"></path></g></g><g stroke-linecap="round"><g transform="translate(134.89724251529572 800.3444410959221) rotate(0 22.404531531998998 0.26802053223360645)"><path d="M-0.52 0.62 C6.9 0.77, 37.69 1.05, 45.33 1.05 M1.41 -0.11 C8.64 -0.28, 37.45 -0.3, 44.69 -0.52" stroke="#1864ab" stroke-width="2" fill="none"></path></g></g><g stroke-linecap="round"><g transform="translate(144.36291842701775 809.5400975512873) rotate(0 12.93857255377499 -0.7955355979968317)"><path d="M0.88 -0.25 C5.07 -0.24, 22.07 0.11, 25.99 0.21 M-0.11 -1.42 C3.92 -1.82, 20.97 -1.74, 25.48 -1.8" stroke="#1864ab" stroke-width="2" fill="none"></path></g></g><g stroke-linecap="round"><g transform="translate(149.25453126079896 815.9741613113133) rotate(0 6.751876454347411 0.43491068317035797)"><path d="M-0.79 0.87 C1.6 0.81, 11.89 -0.27, 14.3 -0.2 M0.99 0.29 C3.3 0.37, 11.77 1.19, 13.76 1.06" stroke="#1864ab" stroke-width="2" fill="none"></path></g></g><g stroke-linecap="round"><g transform="translate(67.80322978543512 643.0865777187635) rotate(0 -0.02850276619701475 -9.5007318193083)"><path d="M0.68 0.53 C0.64 -2.85, 0.44 -16.18, 0.56 -19.54 M-0.42 -0.23 C-0.73 -3.53, -0.84 -15.28, -0.62 -18.34" stroke="#1864ab" stroke-width="2" fill="none"></path></g></g><g stroke-linecap="round"><g transform="translate(66.35851110661429 540.54505315896) rotate(0 -0.20836338841019852 -17.23011227304255)"><path d="M-1.03 -0.64 C-1.16 -6.19, 0.33 -28.42, 0.33 -34.17 M0.62 1.64 C0.31 -4.21, 0.2 -30.14, -0.27 -36.1" stroke="#1864ab" stroke-width="2" fill="none"></path></g><g transform="translate(66.35851110661429 540.54505315896) rotate(0 -0.20836338841019852 -17.23011227304255)"><path d="M5.28 -19.14 C4.31 -27.37, 0.44 -33.58, -1.42 -35.78 M5.81 -19.76 C3.64 -24.69, 3.64 -27.98, -0.06 -35.66" stroke="#1864ab" stroke-width="2" fill="none"></path></g><g transform="translate(66.35851110661429 540.54505315896) rotate(0 -0.20836338841019852 -17.23011227304255)"><path d="M-6.52 -18.73 C-2.9 -27.02, -2.18 -33.38, -1.42 -35.78 M-5.99 -19.35 C-5.22 -24.29, -2.28 -27.68, -0.06 -35.66" stroke="#1864ab" stroke-width="2" fill="none"></path></g></g><g stroke-linecap="round" transform="translate(61.269579066069696 565.4043563001737) rotate(0 5.197222163131585 3.860793606897772)"><path d="M3.79 -0.82 C4.49 -1.03, 5.31 -0.23, 6.42 0.15 C7.53 0.53, 9.82 0.8, 10.45 1.45 C11.07 2.1, 10.41 3.24, 10.16 4.05 C9.9 4.86, 9.73 5.8, 8.92 6.32 C8.1 6.84, 6.5 7.24, 5.28 7.16 C4.06 7.09, 2.6 6.26, 1.6 5.87 C0.59 5.47, -0.65 5.34, -0.74 4.79 C-0.83 4.24, 0.32 3.37, 1.06 2.56 C1.79 1.74, 3.02 0.18, 3.67 -0.11 C4.32 -0.4, 4.71 0.6, 4.94 0.83 M7.44 -1.11 C8.47 -0.8, 7.91 1.4, 8.29 2.44 C8.67 3.47, 9.75 4.28, 9.7 5.12 C9.65 5.96, 8.54 7.26, 7.99 7.48 C7.44 7.7, 7.41 6.37, 6.42 6.42 C5.43 6.47, 3 8.17, 2.06 7.77 C1.11 7.37, 1 5.12, 0.75 4.05 C0.51 2.97, 0.02 2.11, 0.6 1.31 C1.17 0.52, 3.3 -0.46, 4.21 -0.74 C5.12 -1.02, 5.77 -0.47, 6.07 -0.37 C6.36 -0.26, 5.73 -0.2, 5.95 -0.12" stroke="none" stroke-width="0" fill="#fff"></path><path d="M3.91 0.87 C4.93 0.73, 6.86 0.64, 7.78 0.76 C8.7 0.89, 9.05 1.01, 9.43 1.61 C9.82 2.22, 10.13 3.6, 10.07 4.38 C10.02 5.17, 10.07 5.72, 9.1 6.32 C8.13 6.92, 5.4 7.84, 4.24 8 C3.09 8.16, 2.92 7.96, 2.17 7.29 C1.42 6.62, 0.05 5.02, -0.24 3.97 C-0.52 2.92, -0.38 1.6, 0.45 0.99 C1.28 0.37, 3.94 0.42, 4.75 0.28 C5.55 0.15, 5.42 0.3, 5.3 0.16 M2.77 0.18 C3.64 -0.36, 4.8 -0.51, 5.78 -0.04 C6.76 0.43, 7.68 2.07, 8.65 2.98 C9.63 3.88, 11.74 4.76, 11.65 5.39 C11.55 6.02, 9.22 6.38, 8.07 6.76 C6.92 7.15, 5.86 7.85, 4.74 7.7 C3.61 7.55, 1.96 6.26, 1.34 5.89 C0.71 5.51, 1.01 5.87, 0.98 5.43 C0.95 4.99, 1.07 4.05, 1.13 3.27 C1.19 2.5, 0.94 1.47, 1.33 0.78 C1.72 0.1, 3.43 -1.08, 3.47 -0.85" stroke="#5c940d" stroke-width="2" fill="none"></path></g><g stroke-linecap="round" transform="translate(61.5665631896772 597.1816575261784) rotate(0 5.494206286739114 4.900238039524083)"><path d="M4.83 0.82 C5.68 0.63, 6.13 0.17, 7.19 0.62 C8.25 1.06, 10.64 2.52, 11.17 3.48 C11.69 4.44, 10.86 5.35, 10.32 6.38 C9.79 7.42, 8.98 9.19, 7.94 9.67 C6.9 10.15, 5.22 9.59, 4.07 9.25 C2.92 8.91, 1.77 8.25, 1.05 7.63 C0.33 7.02, -0.22 6.48, -0.25 5.57 C-0.28 4.67, 0.11 3.17, 0.86 2.19 C1.61 1.2, 3.46 -0.14, 4.26 -0.35 C5.06 -0.55, 5.47 0.92, 5.66 0.95 M5.35 0.43 C6.19 0.18, 5.87 0.88, 6.51 1.51 C7.16 2.13, 8.35 3.48, 9.22 4.18 C10.09 4.88, 11.82 4.91, 11.72 5.69 C11.62 6.47, 9.96 8.24, 8.64 8.86 C7.31 9.48, 4.74 9.45, 3.76 9.38 C2.78 9.31, 3.2 9.1, 2.77 8.45 C2.33 7.81, 1.5 6.76, 1.14 5.53 C0.79 4.3, 0.23 1.92, 0.64 1.07 C1.06 0.21, 3.27 0.42, 3.62 0.4 C3.97 0.38, 2.73 0.84, 2.73 0.92" stroke="none" stroke-width="0" fill="#fff"></path><path d="M5.2 -0.52 C6.15 -1.07, 7.32 -0.69, 8.22 -0.22 C9.11 0.25, 10.29 1.12, 10.57 2.3 C10.86 3.47, 10.22 5.65, 9.92 6.85 C9.61 8.06, 9.48 9.2, 8.72 9.52 C7.97 9.84, 6.55 8.94, 5.38 8.79 C4.2 8.64, 2.73 9.41, 1.68 8.64 C0.64 7.87, -0.96 5.32, -0.9 4.16 C-0.84 3.01, 1.03 2.47, 2.05 1.69 C3.08 0.91, 4.52 -0.15, 5.25 -0.5 C5.97 -0.85, 6.45 -0.43, 6.39 -0.42 M1.81 0.46 C2.62 -0.01, 4.31 0.83, 5.48 1.2 C6.65 1.57, 8.03 2.03, 8.81 2.7 C9.59 3.36, 10.23 4.48, 10.17 5.2 C10.1 5.93, 8.96 6.28, 8.45 7.07 C7.94 7.86, 7.85 9.87, 7.09 9.95 C6.33 10.03, 5.07 8.3, 3.89 7.57 C2.72 6.85, 0.45 6.27, 0.06 5.59 C-0.33 4.91, 0.84 4.16, 1.54 3.48 C2.24 2.8, 4.24 1.99, 4.27 1.51 C4.29 1.03, 1.77 0.89, 1.7 0.59" stroke="#5c940d" stroke-width="2" fill="none"></path></g><g stroke-linecap="round"><g transform="translate(49.39021412176885 564.8103880529586) rotate(0 0.308815672272047 20.05240904227935)"><path d="M-0.96 0.87 C-0.95 7.52, -0.88 33.42, -0.83 39.83 M0.74 0.28 C1.21 6.58, 1.86 31.31, 1.45 38.03" stroke="#5c940d" stroke-width="2" fill="none"></path></g></g><g stroke-linecap="round"><g transform="translate(37.80783330107556 585.0053084582701) rotate(0 6.24680463125096 0.6312342876298942)"><path d="M0.7 0.52 C3.02 0.5, 10.87 -0.06, 12.88 -0.02 M-0.39 -0.26 C1.82 -0.07, 9.66 1.67, 11.68 1.51" stroke="#5c940d" stroke-width="2" fill="none"></path></g></g><g transform="translate(12.495429698432872 591.8272059820927) rotate(0 11 12.5)"><text x="0" y="18" font-family="Virgil, Segoe UI Emoji" font-size="20px" fill="#1864ab" text-anchor="start" style="white-space: pre;" direction="ltr">B1</text></g><g transform="translate(111.72012463062242 696.8704756295692) rotate(0 16.5 25)"><text x="0" y="18" font-family="Virgil, Segoe UI Emoji" font-size="20px" fill="#1864ab" text-anchor="start" style="white-space: pre;" direction="ltr">R1</text><text x="0" y="43" font-family="Virgil, Segoe UI Emoji" font-size="20px" fill="#1864ab" text-anchor="start" style="white-space: pre;" direction="ltr">10K</text></g><g transform="translate(50.71647599822404 479.33033508936774) rotate(0 20 12.5)"><text x="0" y="18" font-family="Virgil, Segoe UI Emoji" font-size="20px" fill="#1864ab" text-anchor="start" style="white-space: pre;" direction="ltr">3v3</text></g><g stroke-linecap="round"><g transform="translate(155.90179934256912 679.0551027036943) rotate(0 -0.8710137486985872 11.013148842673075)"><path d="M-0.11 0.96 C-0.06 4.49, -0.39 18.39, -0.46 21.61 M-1.63 0.42 C-1.63 3.54, -1.25 16.25, -1.17 19.69" stroke="#5c940d" stroke-width="2" fill="none"></path></g></g><g stroke-linecap="round"><g transform="translate(155.59445685341132 744.211710405153) rotate(0 0.6137147535257697 7.894336906220843)"><path d="M1.16 0.18 C1.22 2.74, 1.15 12.74, 1.08 15.25 M0.3 -0.78 C0.13 1.97, 0.15 13.72, 0.05 16.56" stroke="#5c940d" stroke-width="2" fill="none"></path></g></g><g stroke-linecap="round"><g transform="translate(65.43899132152069 540.9551921781137) rotate(0 0.634830136347432 11.724577776147328)"><path d="M0.83 -0.97 C1.12 3.04, 1.36 20.31, 1.46 24.42 M-0.19 1.13 C-0.08 4.73, 0.2 18.49, 0.3 22.42" stroke="#5c940d" stroke-width="2" fill="none"></path></g></g><g stroke-linecap="round"><g transform="translate(68.29351466705418 606.2710437640039) rotate(0 -0.3578818770678822 7.780589665151979)"><path d="M-1.14 0.37 C-1.36 2.67, -0.22 12.33, -0.32 14.77 M0.46 -0.48 C0.05 1.9, -1.03 13.27, -1 16.04" stroke="#5c940d" stroke-width="2" fill="none"></path></g></g><g stroke-linecap="round"><g transform="translate(333.2043004029475 851.9392443212262) rotate(0 0.3814724889565184 30.11843048619221)"><path d="M-0.86 1.09 C-1.14 11.12, -0.75 49.9, -0.71 59.62 M0.88 0.62 C0.92 10.34, 2.06 48.4, 1.62 57.85" stroke="#5c940d" stroke-width="2" fill="none"></path></g></g><g stroke-linecap="round" transform="translate(342.02488626222225 852.3401800421022) rotate(0 7.818246557084478 29.067839763519316)"><path d="M4.21 -1.24 L13.26 0.4 L14.79 4.03 L15.45 53.38 L14.99 59.43 L3.99 56.4 L1.52 55.73 L1.29 5.27 L-0.43 2.48 L2.26 -1.13" stroke="none" stroke-width="0" fill="#fff"></path><path d="M3.91 0 M3.91 0 C6.72 0.71, 10.12 0.01, 11.73 0 M3.91 0 C5.8 0.07, 7.58 0.2, 11.73 0 M11.73 0 C15.99 0.92, 16.96 2.52, 15.64 3.91 M11.73 0 C16.39 1.79, 14.01 2.23, 15.64 3.91 M15.64 3.91 C16.65 17.04, 15.49 28.04, 15.64 54.23 M15.64 3.91 C15.13 17.32, 14.83 29.85, 15.64 54.23 M15.64 54.23 C16.57 58.07, 14.91 56.53, 11.73 58.14 M15.64 54.23 C17.63 56.12, 14.05 59.13, 11.73 58.14 M11.73 58.14 C9.85 58.65, 6.53 58.75, 3.91 58.14 M11.73 58.14 C9.2 58.58, 7.08 58.54, 3.91 58.14 M3.91 58.14 C-0.52 60.04, 0.43 56.4, 0 54.23 M3.91 58.14 C1.24 56.25, -0.8 57.19, 0 54.23 M0 54.23 C0.37 40.76, -0.75 25.45, 0 3.91 M0 54.23 C0.95 35.88, -0.97 19.55, 0 3.91 M0 3.91 C-0.4 -0.55, 0.68 -1.45, 3.91 0 M0 3.91 C-1.17 1.42, 3.22 -0.31, 3.91 0" stroke="#5c940d" stroke-width="2" fill="none"></path></g><g stroke-linecap="round"><g transform="translate(368.0857081191706 853.1420514838544) rotate(0 0.24141339987517085 27.891725835371915)"><path d="M-0.33 -0.45 C-0.44 8.88, -0.14 46.56, -0.17 56.03 M1.69 -1.73 C1.37 7.79, -0.67 47.59, -1.21 57.51" stroke="#5c940d" stroke-width="2" fill="none"></path></g></g><g stroke-linecap="round"><g transform="translate(331.1996217985668 882.4103591078119) rotate(0 -9.965611249271092 0.18175670875012884)"><path d="M-0.75 0.49 C-4.12 0.26, -16.73 -0.52, -20.04 -0.47 M1.06 -0.3 C-2.48 -0.44, -17.19 0.96, -20.99 0.82" stroke="#5c940d" stroke-width="2" fill="none"></path></g></g><g stroke-linecap="round"><g transform="translate(370.0903867235511 882.4103591078119) rotate(0 9.509170405610263 -0.8770679852843273)"><path d="M-0.82 -0.14 C2.61 -0.49, 16.44 -1.36, 19.84 -1.64 M0.95 -1.26 C4.38 -1.44, 16.38 -0.23, 19.41 -0.12" stroke="#5c940d" stroke-width="2" fill="none"></path></g></g><g stroke-linecap="round"><g transform="translate(264.8938853395642 915.2870882196544) rotate(0 0.7085769174166785 16.014740584261517)"><path d="M-0.32 -0.5 C0 5.06, 0.47 27.1, 0.77 32.5 M1.71 -1.81 C1.98 3.99, -0.09 28.09, -0.19 33.84" stroke="#5c940d" stroke-width="2" fill="none"></path></g></g><g stroke-linecap="round"><g transform="translate(243.24335641225332 951.3713030985059) rotate(0 21.962210615999737 -0.3599665206670579)"><path d="M-0.45 -1.2 C7.04 -1.06, 36.97 0.33, 44.38 0.4 M1.51 0.79 C8.96 0.59, 36.8 -1.41, 43.79 -1.51" stroke="#5c940d" stroke-width="2" fill="none"></path></g></g><g stroke-linecap="round"><g transform="translate(243.24335641225326 967.007796212675) rotate(0 22.54810871256157 -0.2352633788062235)"><path d="M1.06 0.33 C8.41 0.04, 37.49 -0.72, 44.93 -0.8 M0.16 -0.55 C7.28 -0.81, 36.47 -0.13, 44 0.11" stroke="#5c940d" stroke-width="2" fill="none"></path></g></g><g stroke-linecap="round"><g transform="translate(264.49294961868804 968.2106033753034) rotate(0 0.6211809986477022 13.635150635661262)"><path d="M1.03 -0.24 C1.29 4.32, 1.05 22.69, 0.75 27.05 M0.1 -1.41 C0.38 3.4, 0.71 23.99, 0.4 28.68" stroke="#5c940d" stroke-width="2" fill="none"></path></g></g><g stroke-linecap="round"><g transform="translate(423.1887992656955 914.6829790076895) rotate(0 0.532849290638552 15.852197729118018)"><path d="M-0.47 0.09 C-0.11 5.32, 1.21 26.08, 1.27 31.69 M1.49 -0.9 C1.8 4.4, 0.43 27.14, 0.56 32.61" stroke="#5c940d" stroke-width="2" fill="none"></path></g></g><g stroke-linecap="round"><g transform="translate(401.5382703383848 950.767193886541) rotate(0 21.645327211521334 -0.2439506482332945)"><path d="M0.09 0.46 C7.13 0.38, 35.1 -0.78, 42.52 -0.95 M-1.31 -0.34 C6.04 -0.26, 37 -0.04, 44.61 0.09" stroke="#5c940d" stroke-width="2" fill="none"></path></g></g><g stroke-linecap="round"><g transform="translate(401.53827033838456 966.4036870007099) rotate(0 22.706783534024083 0.058726991079879554)"><path d="M0.46 -1.19 C7.87 -0.98, 36.65 1.14, 43.95 1.3 M-0.75 0.81 C7.06 0.67, 38.84 -0.34, 46.17 -0.35" stroke="#5c940d" stroke-width="2" fill="none"></path></g></g><g stroke-linecap="round"><g transform="translate(422.7878635448194 967.6064941633385) rotate(0 -0.3422087297962264 13.27024867103404)"><path d="M-1.19 -0.95 C-1.12 3.35, 0.47 21.72, 0.5 26.27 M0.39 1.16 C0.37 5.58, 0.44 23.12, 0.03 27.49" stroke="#5c940d" stroke-width="2" fill="none"></path></g></g><g stroke-linecap="round"><g transform="translate(265.31946482362866 997.9491746317681) rotate(0 0.6067546550809482 19.696298141180137)"><path d="M0.78 0.55 C0.76 7.12, -0.37 33.09, -0.6 39.6 M-0.26 -0.21 C0.15 5.98, 2.03 31.42, 1.79 37.72" stroke="#1864ab" stroke-width="2" fill="none"></path></g></g><g stroke-linecap="round"><g transform="translate(244.2401515446361 1038.1000958863303) rotate(0 22.28591653745073 0.4918785353513613)"><path d="M0.55 -0.6 C8.05 -0.83, 37.75 -0.64, 45.2 -0.6 M-0.63 1.7 C6.74 1.55, 36.93 0.77, 44.49 0.63" stroke="#1864ab" stroke-width="2" fill="none"></path></g></g><g stroke-linecap="round"><g transform="translate(253.70582745635807 1047.2957523416956) rotate(0 13.1830238208982 -0.4166517265688867)"><path d="M-0.6 0.46 C3.36 0.45, 20.33 0.64, 24.57 0.5 M1.28 -0.35 C5.58 -0.77, 23.2 -1.54, 26.97 -1.36" stroke="#1864ab" stroke-width="2" fill="none"></path></g></g><g stroke-linecap="round"><g transform="translate(258.5974402901393 1053.7298161017213) rotate(0 6.623179541708566 0.600316680359299)"><path d="M0.46 -0.6 C2.7 -0.49, 11.89 -0.13, 14.01 0.02 M-0.76 1.7 C1.32 2.03, 11.17 1.4, 13.33 1.38" stroke="#1864ab" stroke-width="2" fill="none"></path></g></g><g stroke-linecap="round"><g transform="translate(423.81946482362855 994.9491746317681) rotate(0 0.21518263468485088 19.6977297300366)"><path d="M0.28 0.64 C-0.04 7.16, -0.78 32.08, -0.82 38.34 M-1.04 -0.06 C-1.07 6.65, 1.41 32.94, 1.47 39.46" stroke="#1864ab" stroke-width="2" fill="none"></path></g></g><g stroke-linecap="round"><g transform="translate(402.740151544636 1035.1000958863303) rotate(0 22.874612768882997 0.38193903143979924)"><path d="M0.64 -0.82 C8.09 -0.86, 36.74 -0.15, 43.94 0.03 M-0.48 1.37 C7.42 1.51, 38.45 1.52, 46.23 1.58" stroke="#1864ab" stroke-width="2" fill="none"></path></g></g><g stroke-linecap="round"><g transform="translate(412.20582745635807 1044.2957523416956) rotate(0 12.189767145325135 0.20301317934485041)"><path d="M-0.82 -0.8 C3.34 -1.07, 20.82 -0.96, 25.2 -0.94 M0.96 1.39 C4.93 1.19, 20.28 0.28, 24.26 0.1" stroke="#1864ab" stroke-width="2" fill="none"></path></g></g><g stroke-linecap="round"><g transform="translate(417.0974402901393 1050.7298161017213) rotate(0 6.989596830935824 -0.415759382984902)"><path d="M-0.8 0.03 C1.18 0.27, 10.29 0.59, 12.57 0.64 M0.97 -1 C3.27 -1.07, 12.99 -1.76, 14.78 -1.33" stroke="#1864ab" stroke-width="2" fill="none"></path></g></g><g transform="translate(338.14468307663515 796.2846591410198) rotate(0 16.5 25)"><text x="0" y="18" font-family="Virgil, Segoe UI Emoji" font-size="20px" fill="#1864ab" text-anchor="start" style="white-space: pre;" direction="ltr">X1</text><text x="0" y="43" font-family="Virgil, Segoe UI Emoji" font-size="20px" fill="#1864ab" text-anchor="start" style="white-space: pre;" direction="ltr">10K</text></g><g transform="translate(197.95770062679225 937.5843123203042) rotate(0 19 25)"><text x="0" y="18" font-family="Virgil, Segoe UI Emoji" font-size="20px" fill="#1864ab" text-anchor="start" style="white-space: pre;" direction="ltr">C3</text><text x="0" y="43" font-family="Virgil, Segoe UI Emoji" font-size="20px" fill="#1864ab" text-anchor="start" style="white-space: pre;" direction="ltr">0.1u</text></g><g transform="translate(356.6745617712794 936.9898410990531) rotate(0 19 25)"><text x="0" y="18" font-family="Virgil, Segoe UI Emoji" font-size="20px" fill="#1864ab" text-anchor="start" style="white-space: pre;" direction="ltr">C4</text><text x="0" y="43" font-family="Virgil, Segoe UI Emoji" font-size="20px" fill="#1864ab" text-anchor="start" style="white-space: pre;" direction="ltr">0.1u</text></g><g stroke-linecap="round"><g transform="translate(519.6274285436499 707.129484439631) rotate(0 -125.88495258420448 -0.3332920170862792)"><path d="M0.04 -0.96 C-41.85 -1.19, -209.15 -0.11, -250.8 -0.26 M-1.4 1.15 C-43.5 1.12, -210.33 -1.48, -251.81 -1.81" stroke="#1864ab" stroke-width="2" fill="none"></path></g></g><g stroke-linecap="round"><g transform="translate(265.9520481634879 915.3710716222872) rotate(0 0.22263049953093628 -106.41781494676718)"><path d="M-0.23 -0.44 C-0.24 -35.43, -0.32 -175.38, 0.11 -210.38 M-1.81 -1.72 C-1.47 -37.06, 1.58 -177.83, 2.26 -212.39" stroke="#1864ab" stroke-width="2" fill="none"></path></g></g><g stroke-linecap="round"><g transform="translate(424.64468307663503 745.7846591410198) rotate(0 -1.1354669546562377 84.36883192102718)"><path d="M-0.13 -0.69 C-0.43 27.43, -0.88 140.23, -1.02 168.45 M-1.66 1.56 C-2.21 29.81, -2.11 141.45, -2.14 169.43" stroke="#1864ab" stroke-width="2" fill="none"></path></g></g><g stroke-linecap="round"><g transform="translate(308.14468307663503 881.7846591410198) rotate(0 -21.56259415383451 0.9644535314291716)"><path d="M1.12 -0.93 C-6.13 -0.35, -35.77 2.26, -43.37 2.86 M0.25 1.19 C-7.15 1.45, -37.19 0.44, -44.25 0.93" stroke="#1864ab" stroke-width="2" fill="none"></path></g></g><g stroke-linecap="round"><g transform="translate(391.14468307663503 882.2846591410198) rotate(0 16.4998716269061 -0.6156383942812909)"><path d="M-0.27 0.07 C4.7 -0.18, 25.53 -1.02, 30.88 -1.3 M1.79 -0.94 C7.07 -1.07, 28.36 -0.2, 33.27 -0.18" stroke="#1864ab" stroke-width="2" fill="none"></path></g></g><g stroke-linecap="round" transform="translate(187.64468307663503 777.3951354438125) rotate(0 152.00000000000006 149.69476184860366)"><path d="M74.85 0 M74.85 0 C114.51 0, 154.17 0, 229.15 0 M229.15 0 C279.05 0, 304 24.95, 304 74.85 M304 74.85 C304 109.35, 304 143.85, 304 224.54 M304 224.54 C304 274.44, 279.05 299.39, 229.15 299.39 M229.15 299.39 C191.38 299.39, 153.62 299.39, 74.85 299.39 M74.85 299.39 C24.95 299.39, 0 274.44, 0 224.54 M0 224.54 C0 181.7, 0 138.85, 0 74.85 M0 74.85 C0 24.95, 24.95 0, 74.85 0" stroke="#e67700" stroke-width="2.5" fill="none" stroke-dasharray="1.5 8"></path></g><g transform="translate(297.5993499005448 1106.1741828382271) rotate(0 54 18)"><text x="0" y="25" font-family="Virgil, Segoe UI Emoji" font-size="28px" fill="#e67700" text-anchor="start" style="white-space: pre;" direction="ltr">optional</text></g><g transform="translate(473.4415755393022 653.1086063535824) rotate(270 31 9.5)"><text x="0" y="15" font-family="Helvetica, Segoe UI Emoji" font-size="16px" fill="#1864ab" text-anchor="start" style="white-space: pre;" direction="ltr">OSC_IN</text></g><g transform="translate(503.64468307663503 661.2846591410198) rotate(270 39.5 9.5)"><text x="0" y="15" font-family="Helvetica, Segoe UI Emoji" font-size="16px" fill="#1864ab" text-anchor="start" style="white-space: pre;" direction="ltr">OSC_OUT</text></g><g stroke-linecap="round" transform="translate(730.6199719625729 852.5556124867721) rotate(0 6.26613052385386 22.307424664919722)"><path d="M3.13 0 M3.13 0 C4.68 -0.3, 5.89 -0.32, 9.4 0 M3.13 0 C5.02 0.08, 7.66 0.34, 9.4 0 M9.4 0 C10.36 0.89, 10.54 1.84, 12.53 3.13 M9.4 0 C11.8 1.41, 10.56 -1.22, 12.53 3.13 M12.53 3.13 C12.24 17.66, 14.04 29.48, 12.53 41.48 M12.53 3.13 C13.37 15.18, 11.74 26.51, 12.53 41.48 M12.53 41.48 C14.27 41.98, 10.57 43.9, 9.4 44.61 M12.53 41.48 C13.08 44.68, 11.45 46.3, 9.4 44.61 M9.4 44.61 C8.54 45.22, 6.75 45.04, 3.13 44.61 M9.4 44.61 C8.25 44.39, 7.14 44.88, 3.13 44.61 M3.13 44.61 C-0.73 42.9, 0 45.35, 0 41.48 M3.13 44.61 C0.62 44.62, 0.04 44.36, 0 41.48 M0 41.48 C0.39 29.43, 1.48 19.23, 0 3.13 M0 41.48 C-1.12 31.02, 0.39 22.74, 0 3.13 M0 3.13 C0.95 1.64, -0.72 0.32, 3.13 0 M0 3.13 C-0.13 0.49, 0.06 1.4, 3.13 0" stroke="#5c940d" stroke-width="2" fill="none"></path></g><g transform="translate(760.6333491776041 854.6650285702697) rotate(0 16.5 25)"><text x="0" y="18" font-family="Virgil, Segoe UI Emoji" font-size="20px" fill="#1864ab" text-anchor="start" style="white-space: pre;" direction="ltr">R2</text><text x="0" y="43" font-family="Virgil, Segoe UI Emoji" font-size="20px" fill="#1864ab" text-anchor="start" style="white-space: pre;" direction="ltr">10K</text></g><g stroke-linecap="round"><g transform="translate(736.6016265370625 832.3985877545954) rotate(0 0.2222312206642414 9.09712291216556)"><path d="M-0.49 0.06 C-0.58 3.19, -0.01 16.22, 0.21 19.15 M1.46 -0.96 C1.09 1.78, -0.8 14.04, -1.01 17.27" stroke="#5c940d" stroke-width="2" fill="none"></path></g></g><g stroke-linecap="round"><g transform="translate(736.9344351401178 898.2596161386562) rotate(0 -0.7011184729103093 8.539361984747984)"><path d="M0.06 -0.53 C-0.04 2.22, 0.03 13.43, -0.28 16.01 M-1.37 1.8 C-1.62 4.81, -1.31 15.28, -0.98 17.61" stroke="#5c940d" stroke-width="2" fill="none"></path></g></g><g stroke-linecap="round"><g transform="translate(775.3878452742963 820.1809885942591) rotate(0 27.9271230335151 0.6916872448375102)"><path d="M-0.81 1 C8.36 0.97, 44.98 0.32, 54.41 0.15 M0.96 0.48 C10.56 0.56, 47.63 1.19, 56.67 1.23" stroke="#1864ab" stroke-width="2" fill="none"></path></g><g transform="translate(775.3878452742963 820.1809885942591) rotate(0 27.9271230335151 0.6916872448375102)"><path d="M32.25 8.95 C35.59 9.08, 41.72 4.93, 55.55 1.42 M30.4 10.26 C38.87 6.52, 49.19 4.78, 57.01 1.65" stroke="#1864ab" stroke-width="2" fill="none"></path></g><g transform="translate(775.3878452742963 820.1809885942591) rotate(0 27.9271230335151 0.6916872448375102)"><path d="M32.47 -9.95 C35.8 -5.15, 41.88 -4.6, 55.55 1.42 M30.62 -8.64 C39.16 -5.96, 49.41 -1.27, 57.01 1.65" stroke="#1864ab" stroke-width="2" fill="none"></path></g></g><g transform="translate(844.5810962123705 812.4634294050409) rotate(0 20 12.5)"><text x="0" y="18" font-family="Virgil, Segoe UI Emoji" font-size="20px" fill="#1864ab" text-anchor="start" style="white-space: pre;" direction="ltr">3v3</text></g><g stroke-linecap="round" transform="translate(588.8919965754387 990.1750790147942) rotate(0 5.197222163131585 3.8607936068977438)"><path d="M2.78 0.86 C3.73 0.5, 4.92 -0.43, 6.11 -0.12 C7.3 0.18, 9.36 1.87, 9.93 2.68 C10.5 3.5, 9.6 3.93, 9.52 4.76 C9.45 5.59, 10.35 7.01, 9.5 7.67 C8.66 8.32, 5.7 8.74, 4.44 8.68 C3.18 8.62, 2.62 8.01, 1.95 7.31 C1.27 6.62, 0.78 5.32, 0.4 4.54 C0.03 3.76, -0.86 3.45, -0.3 2.64 C0.25 1.82, 2.81 0.21, 3.73 -0.37 C4.65 -0.94, 5.06 -1.08, 5.22 -0.82 M5.87 -1 C6.99 -0.82, 8.86 1.31, 9.52 1.93 C10.17 2.54, 9.53 1.9, 9.81 2.68 C10.09 3.47, 11.64 5.95, 11.18 6.65 C10.73 7.34, 8.29 6.91, 7.09 6.86 C5.88 6.81, 4.94 6.53, 3.96 6.32 C2.97 6.12, 1.94 6.06, 1.17 5.6 C0.41 5.15, -0.65 4.13, -0.63 3.57 C-0.6 3.01, 0.26 2.69, 1.34 2.27 C2.42 1.85, 5.04 1.32, 5.85 1.05 C6.66 0.78, 6.24 0.61, 6.19 0.64" stroke="none" stroke-width="0" fill="#fff"></path><path d="M6.02 -0.42 C6.98 -0.1, 9.36 1.66, 9.95 2.52 C10.54 3.38, 9.66 3.97, 9.56 4.74 C9.45 5.5, 9.9 6.51, 9.33 7.11 C8.75 7.7, 7.46 8.44, 6.1 8.31 C4.75 8.19, 2.03 6.94, 1.18 6.36 C0.34 5.79, 1.05 5.62, 1.02 4.84 C0.99 4.07, 0.75 2.38, 0.99 1.72 C1.22 1.06, 1.34 1.06, 2.44 0.89 C3.54 0.73, 6.66 0.9, 7.59 0.73 C8.52 0.56, 8.21 -0.08, 8.02 -0.12 M5.41 1.1 C6.42 1.26, 7.01 1.85, 7.7 2.15 C8.4 2.44, 9.17 2.17, 9.58 2.86 C9.99 3.56, 10.38 5.54, 10.17 6.33 C9.95 7.12, 9.57 7.5, 8.27 7.62 C6.98 7.74, 3.66 7.18, 2.39 7.05 C1.12 6.92, 1.19 7.54, 0.65 6.82 C0.12 6.1, -0.87 3.69, -0.83 2.74 C-0.8 1.79, 0.16 1.43, 0.86 1.13 C1.56 0.83, 2.94 0.98, 3.37 0.93 C3.8 0.88, 3.44 0.94, 3.47 0.81" stroke="#5c940d" stroke-width="2" fill="none"></path></g><g stroke-linecap="round" transform="translate(589.1889806990463 1021.9523802407987) rotate(0 5.494206286739143 4.900238039524083)"><path d="M4.12 -0.49 C5.09 -0.77, 5.77 0.17, 6.91 0.51 C8.05 0.86, 10.26 0.55, 10.97 1.56 C11.68 2.57, 11.35 5.54, 11.18 6.58 C11.02 7.62, 10.75 7.24, 9.99 7.79 C9.22 8.33, 7.82 9.65, 6.58 9.86 C5.34 10.07, 3.62 9.87, 2.53 9.04 C1.45 8.21, 0.28 5.97, 0.08 4.88 C-0.11 3.79, 0.82 3.09, 1.35 2.48 C1.89 1.87, 2.99 1.47, 3.29 1.22 C3.59 0.97, 2.93 1.09, 3.16 0.98 M6.06 1.49 C7.45 1.47, 10.51 0.91, 11.29 1.79 C12.06 2.67, 10.88 5.7, 10.73 6.78 C10.58 7.85, 11.28 7.69, 10.37 8.22 C9.47 8.75, 6.86 9.81, 5.29 9.96 C3.72 10.1, 1.88 9.86, 0.96 9.1 C0.03 8.33, -0.24 6.48, -0.28 5.37 C-0.33 4.27, -0.12 3.12, 0.68 2.47 C1.48 1.81, 3.25 1.59, 4.49 1.44 C5.73 1.3, 7.6 1.66, 8.11 1.58 C8.63 1.5, 7.65 1.27, 7.6 0.99" stroke="none" stroke-width="0" fill="#fff"></path><path d="M6.45 0.47 C7.63 0.73, 9.91 0.5, 10.69 1.47 C11.48 2.44, 11.35 4.96, 11.15 6.28 C10.96 7.6, 10.33 8.91, 9.53 9.39 C8.74 9.86, 7.68 9.06, 6.38 9.12 C5.08 9.18, 2.72 10.23, 1.74 9.76 C0.75 9.29, 0.68 7.64, 0.45 6.3 C0.23 4.95, -0.21 2.62, 0.38 1.7 C0.98 0.78, 2.69 0.86, 4 0.75 C5.31 0.64, 7.59 1.1, 8.23 1.04 C8.87 0.97, 7.97 0.4, 7.84 0.35 M6.14 -0.46 C7.53 -0.82, 9.36 -0.46, 10.14 0.27 C10.92 1.01, 10.63 2.66, 10.82 3.93 C11.01 5.2, 11.76 7.23, 11.29 7.89 C10.83 8.55, 9.33 7.65, 8.03 7.89 C6.73 8.13, 4.54 9.51, 3.49 9.33 C2.43 9.16, 2.41 7.75, 1.71 6.82 C1 5.9, -0.75 4.9, -0.76 3.77 C-0.77 2.64, 0.52 0.87, 1.64 0.03 C2.76 -0.81, 5.29 -1.07, 5.98 -1.27 C6.67 -1.47, 5.97 -1.41, 5.79 -1.16" stroke="#5c940d" stroke-width="2" fill="none"></path></g><g stroke-linecap="round"><g transform="translate(577.0126316311379 989.581110767579) rotate(0 -0.07862184151650808 19.515167721017406)"><path d="M0.84 0.71 C0.82 7.22, 0.28 31.59, 0.01 38.06 M-0.18 0.04 C-0.37 6.74, -1.24 32.17, -0.93 38.99" stroke="#5c940d" stroke-width="2" fill="none"></path></g></g><g stroke-linecap="round"><g transform="translate(563.4302508104446 1009.7760311728905) rotate(0 6.976855594665835 -0.3465341176295169)"><path d="M0.71 0.01 C2.91 -0.26, 10.06 -0.9, 12.22 -0.78 M-0.38 -1.02 C2.26 -1.23, 12.09 0.39, 14.33 0.35" stroke="#5c940d" stroke-width="2" fill="none"></path></g></g><g transform="translate(537.0772336872947 1019.2066766767323) rotate(0 15.5 12.5)"><text x="0" y="18" font-family="Virgil, Segoe UI Emoji" font-size="20px" fill="#1864ab" text-anchor="start" style="white-space: pre;" direction="ltr">B2</text></g><g stroke-linecap="round"><g transform="translate(595.9159321764232 1031.0417664786244) rotate(0 -0.34704078213144385 9.461886727696935)"><path d="M-1.14 -0.78 C-1.24 2.5, 0.15 16.37, 0.16 19.7 M0.46 1.43 C0.17 4.36, -0.77 14.74, -0.62 17.95" stroke="#5c940d" stroke-width="2" fill="none"></path></g></g><g stroke-linecap="round"><g transform="translate(425.43597027735643 747.2898769610017) rotate(0 65.13051043385155 0.2804388243611129)"><path d="M-0.84 0.2 C21.12 0.34, 108.92 -0.31, 131.1 -0.35 M0.93 -0.74 C22.76 -0.27, 108.24 1.51, 130.09 1.27" stroke="#1864ab" stroke-width="2" fill="none"></path></g></g><g stroke-linecap="round"><g transform="translate(594.4717947687757 807.7603754706631) rotate(0 -1.0846855422383328 77.49579523569616)"><path d="M-0.89 0.87 C-1.3 26.59, -1.81 128.23, -2.22 153.68 M0.84 0.28 C0.28 26.17, -2.72 129.04, -3.01 154.72" stroke="#1864ab" stroke-width="2" fill="none"></path></g></g><g stroke-linecap="round"><g transform="translate(593.0066316345473 935.6711900722848) rotate(0 72.49148975968484 -0.6677338569788276)"><path d="M0.35 -0.28 C24.35 -0.61, 119.62 -1.08, 143.77 -1.43 M-0.93 -1.47 C23.46 -1.65, 121.64 0.15, 145.91 0.14" stroke="#1864ab" stroke-width="2" fill="none"></path></g></g><g stroke-linecap="round"><g transform="translate(592.6364075625628 963.0325789041549) rotate(0 0.8575851721861341 14.272380583488257)"><path d="M0.22 -0.68 C0.15 3.92, 0.47 22.85, 0.64 27.59 M-1.12 1.58 C-0.92 6.4, 2.6 25.22, 2.84 29.22" stroke="#5c940d" stroke-width="2" fill="none"></path></g></g><g stroke-linecap="round"><g transform="translate(594.8224019871569 1050.6335469701248) rotate(0 0.17820207047930126 19.6870226086383)"><path d="M0.83 -0.79 C0.98 5.87, 0.28 33.33, 0.32 40.17 M-0.19 1.4 C-0.12 7.74, -0.64 32.41, -0.46 38.58" stroke="#1864ab" stroke-width="2" fill="none"></path></g></g><g stroke-linecap="round"><g transform="translate(575.7430887081642 1090.784468224687) rotate(0 22.483408396909113 0.2046699284414899)"><path d="M-0.79 0.32 C6.81 0.36, 37.99 1.03, 45.76 1.08 M0.99 -0.56 C8.51 -0.9, 37.91 -0.33, 45.35 -0.48" stroke="#1864ab" stroke-width="2" fill="none"></path></g></g><g stroke-linecap="round"><g transform="translate(583.2087646198862 1099.9801246800523) rotate(0 12.637078165855883 0.38782438150150256)"><path d="M0.32 1.02 C4.55 1.33, 22.01 1.37, 26.25 1.07 M-0.97 0.51 C3.13 0.58, 21.49 -0.43, 25.86 -0.5" stroke="#1864ab" stroke-width="2" fill="none"></path></g></g><g stroke-linecap="round"><g transform="translate(588.1003774536674 1106.414188440078) rotate(0 7.334249273504724 0.11164846855854194)"><path d="M1.02 1.08 C3.58 1.18, 12.63 0.93, 14.57 0.93 M0.1 0.6 C2.66 0.32, 11.67 -0.64, 14.18 -0.88" stroke="#1864ab" stroke-width="2" fill="none"></path></g></g><g stroke-linecap="round"><g transform="translate(735.4213049632172 968.7156215098903) rotate(0 0.6929707819115265 15.889471429075854)"><path d="M0.94 -0.18 C1.05 5.2, -0.52 26.52, -0.35 32.02 M-0.02 -1.33 C0.53 4.22, 1.46 27.2, 1.75 33.11" stroke="#5c940d" stroke-width="2" fill="none"></path></g></g><g stroke-linecap="round"><g transform="translate(713.7707760359065 1004.7998363887418) rotate(0 21.682600911479142 -0.015248571708752934)"><path d="M-0.18 -1.16 C7.01 -1.13, 35.54 1.1, 42.84 1.13 M-1.74 0.85 C5.86 0.49, 37.68 -0.23, 45.11 -0.41" stroke="#5c940d" stroke-width="2" fill="none"></path></g></g><g stroke-linecap="round"><g transform="translate(713.7707760359062 1020.4363295029107) rotate(0 22.43715179735443 0.4871244471522118)"><path d="M-1.16 -0.86 C6.36 -0.77, 38.52 0.14, 46.03 0.33 M0.44 1.31 C7.81 1.61, 38.03 1.79, 45.67 1.83" stroke="#5c940d" stroke-width="2" fill="none"></path></g></g><g stroke-linecap="round"><g transform="translate(735.0203692423411 1021.6391366655394) rotate(0 -0.2813625139185092 13.785528492135597)"><path d="M-0.86 1.13 C-0.91 5.63, -0.53 21.47, -0.47 25.88 M0.89 0.67 C0.7 5.4, -1.09 22.74, -1.46 26.9" stroke="#5c940d" stroke-width="2" fill="none"></path></g></g><g stroke-linecap="round"><g transform="translate(733.8468844472816 1051.377707922004) rotate(0 0.11487446900457599 19.698685809419032)"><path d="M1.13 -0.07 C1.15 6.58, -0.92 32.4, -0.98 39.06 M0.26 -1.15 C0.75 5.77, 1.2 34.04, 1.21 40.55" stroke="#1864ab" stroke-width="2" fill="none"></path></g></g><g stroke-linecap="round"><g transform="translate(714.7675711682891 1091.5286291765663) rotate(0 21.5431322278493 0.048211179203690335)"><path d="M-0.07 -0.98 C7.52 -1.05, 37.06 0.63, 44.65 0.72 M-1.57 1.12 C5.93 1.22, 35.89 -0.95, 43.66 -1.02" stroke="#1864ab" stroke-width="2" fill="none"></path></g></g><g stroke-linecap="round"><g transform="translate(722.2332470800111 1100.7242856319315) rotate(0 12.45265755202314 -0.26850713433219653)"><path d="M-0.98 -0.09 C3.14 0.04, 21.6 0.58, 25.89 0.71 M0.7 -1.18 C4.64 -1.39, 21.48 -1.02, 25.32 -1.04" stroke="#1864ab" stroke-width="2" fill="none"></path></g></g><g stroke-linecap="round"><g transform="translate(727.1248599137923 1107.1583493919572) rotate(0 6.310456331338401 0.5778906685666811)"><path d="M-0.09 0.72 C2.29 0.87, 11.84 -0.18, 14.22 -0.08 M-1.6 0.05 C0.7 0.46, 11.08 1.32, 13.64 1.23" stroke="#1864ab" stroke-width="2" fill="none"></path></g></g><g transform="translate(772.672102700288 991.7131924312557) rotate(0 19 25)"><text x="0" y="18" font-family="Virgil, Segoe UI Emoji" font-size="20px" fill="#1864ab" text-anchor="start" style="white-space: pre;" direction="ltr">C2</text><text x="0" y="43" font-family="Virgil, Segoe UI Emoji" font-size="20px" fill="#1864ab" text-anchor="start" style="white-space: pre;" direction="ltr">0.1u</text></g><g stroke-linecap="round"><g transform="translate(735.2164563104847 917.7382939540557) rotate(0 0.40934521428164317 24.774041776872252)"><path d="M1.04 0.05 C1 8.54, 0.9 42.37, 0.57 50.52 M0.13 -0.97 C-0.1 7.19, -0.35 40.16, -0.15 48.6" stroke="#1864ab" stroke-width="2" fill="none"></path></g></g><g transform="translate(548.2259895658466 652.2346747371512) rotate(270 32 9.5)"><text x="0" y="15" font-family="Helvetica, Segoe UI Emoji" font-size="16px" fill="#1864ab" text-anchor="start" style="white-space: pre;" direction="ltr">nRESET</text></g><g transform="translate(597.5601752531529 644.6208095187217) rotate(270 23 9.5)"><text x="0" y="15" font-family="Helvetica, Segoe UI Emoji" font-size="16px" fill="#1864ab" text-anchor="start" style="white-space: pre;" direction="ltr">VDDA</text></g><g stroke-linecap="round"><g transform="translate(669.6082021116915 786.6373038197057) rotate(0 220.8646653323155 0.24642483083306388)"><path d="M-0.2 -0.14 C73.64 0.24, 369.51 1.35, 443.49 1.75 M-1.76 -1.26 C71.85 -1.2, 368.26 -0.39, 442.35 -0.1" stroke="#1864ab" stroke-width="2" fill="none"></path></g></g><g stroke-linecap="round"><g transform="translate(706.9758829607517 750.9676872780155) rotate(0 201.2260622193 2.3888990086656463)"><path d="M-0.18 0.94 C67.35 1.53, 336.91 3.7, 404.19 4.39 M-1.74 0.38 C65.74 0.52, 335.94 1.92, 403.28 2.41" stroke="#1864ab" stroke-width="2" fill="none"></path></g></g><g stroke-linecap="round"><g transform="translate(743.4102266811992 723.3153511094399) rotate(0 182.22555284367326 -1.2389282383642524)"><path d="M-0.81 -0.41 C60.01 -0.87, 304.33 -1.76, 365.26 -2.07 M0.97 -1.67 C61.63 -2.02, 304.04 -0.83, 364.54 -0.76" stroke="#1864ab" stroke-width="2" fill="none"></path></g></g><g stroke-linecap="round"><g transform="translate(781.0326468273136 686.920146222122) rotate(0 163.09700856828937 0.717275982969511)"><path d="M-0.14 -0.3 C54.41 0.24, 273.39 2.69, 327.87 2.94 M-1.67 -1.51 C52.67 -1.29, 271.84 0.58, 326.96 1.17" stroke="#1864ab" stroke-width="2" fill="none"></path></g></g><g stroke-linecap="round"><g transform="translate(815.4868631716497 654.5347705601203) rotate(0 146.70055667908446 1.878030804721078)"><path d="M0.44 0.13 C49.42 0.73, 245.47 3.87, 294.2 4.6 M-0.79 -0.84 C48.04 -0.05, 244.11 2.37, 293.43 2.95" stroke="#1864ab" stroke-width="2" fill="none"></path></g></g><g transform="translate(640.6394753571957 637.120629861239) rotate(270 15.5 9.5)"><text x="0" y="15" font-family="Helvetica, Segoe UI Emoji" font-size="16px" fill="#1864ab" text-anchor="start" style="white-space: pre;" direction="ltr">PA0</text></g><g transform="translate(677.7926063791804 635.7478311409317) rotate(270 15.5 9.5)"><text x="0" y="15" font-family="Helvetica, Segoe UI Emoji" font-size="16px" fill="#1864ab" text-anchor="start" style="white-space: pre;" direction="ltr">PA1</text></g><g transform="translate(715.6165988769854 636.6368291811752) rotate(270 15.5 9.5)"><text x="0" y="15" font-family="Helvetica, Segoe UI Emoji" font-size="16px" fill="#1864ab" text-anchor="start" style="white-space: pre;" direction="ltr">PA2</text></g><g transform="translate(752.2521436839766 635.4003387885957) rotate(270 15.5 9.5)"><text x="0" y="15" font-family="Helvetica, Segoe UI Emoji" font-size="16px" fill="#1864ab" text-anchor="start" style="white-space: pre;" direction="ltr">PA3</text></g><g transform="translate(786.4103161944546 634.1809981555004) rotate(270 15.5 9.5)"><text x="0" y="15" font-family="Helvetica, Segoe UI Emoji" font-size="16px" fill="#1864ab" text-anchor="start" style="white-space: pre;" direction="ltr">PA4</text></g><g stroke-linecap="round" transform="translate(1097.6138350063757 629.5925960430839) rotate(0 30.067256083282246 94.1358017560704)"><path d="M15.03 0 M15.03 0 C23.03 1.18, 31.52 -2.07, 45.1 0 M45.1 0 C54.99 -0.57, 59.18 6.33, 60.13 15.03 M60.13 15.03 C58.41 71.04, 57.83 128.02, 60.13 173.24 M60.13 173.24 C58.17 184.81, 53.31 189.36, 45.1 188.27 M45.1 188.27 C36.77 186.78, 30.73 188.24, 15.03 188.27 M15.03 188.27 C5.37 188.18, 1.14 183.24, 0 173.24 M0 173.24 C-1.41 120.71, -2.1 66.43, 0 15.03 M0 15.03 C1.63 6.91, 3.11 -1.28, 15.03 0" stroke="#1864ab" stroke-width="1.5" fill="none" stroke-dasharray="8 9"></path></g><g transform="translate(1171.3763184533195 778.5779458652439) rotate(0 33 12.5)"><text x="0" y="18" font-family="Virgil, Segoe UI Emoji" font-size="20px" fill="#1864ab" text-anchor="start" style="white-space: pre;" direction="ltr">SWCLK</text></g><g stroke-linecap="round"><g transform="translate(1113.9119738178742 787.7639602250545) rotate(0 14.767380074351422 0.7315144059659815)"><path d="M-0.55 0.9 C4.28 0.73, 24.9 0.3, 30.08 0.09 M1.37 0.32 C5.92 0.83, 24.24 1.36, 28.99 1.38" stroke="#e67700" stroke-width="2" fill="none"></path></g><g transform="translate(1113.9119738178742 787.7639602250545) rotate(0 14.767380074351422 0.7315144059659815)"><path d="M15.77 5.95 C19.61 4.68, 24.63 2.45, 30.47 2.28 M15.2 6.44 C18.36 5.13, 23.53 2.77, 28.54 1.3" stroke="#e67700" stroke-width="2" fill="none"></path></g><g transform="translate(1113.9119738178742 787.7639602250545) rotate(0 14.767380074351422 0.7315144059659815)"><path d="M15.97 -4.43 C19.83 -1.64, 24.77 0.19, 30.47 2.28 M15.41 -3.94 C18.52 -2.12, 23.63 -1.35, 28.54 1.3" stroke="#e67700" stroke-width="2" fill="none"></path></g></g><g stroke-linecap="round"><g transform="translate(1114.8807277684182 754.1881490496773) rotate(0 14.852277461379117 0.9785266692911136)"><path d="M-0.69 0.78 C4.32 0.77, 25.14 0.3, 30.39 0.37 M1.15 0.14 C5.98 0.29, 24.61 1.96, 29.47 1.81" stroke="#e67700" stroke-width="2" fill="none"></path></g><g transform="translate(1114.8807277684182 754.1881490496773) rotate(0 14.852277461379117 0.9785266692911136)"><path d="M16.01 6.54 C19.52 5.6, 25.33 4.1, 28.88 2.09 M14.95 6.11 C18.87 5.44, 21.15 4.11, 29.08 1.07" stroke="#e67700" stroke-width="2" fill="none"></path></g><g transform="translate(1114.8807277684182 754.1881490496773) rotate(0 14.852277461379117 0.9785266692911136)"><path d="M16.38 -3.84 C19.8 -1.36, 25.49 0.54, 28.88 2.09 M15.33 -4.27 C19.1 -2.7, 21.31 -1.8, 29.08 1.07" stroke="#e67700" stroke-width="2" fill="none"></path></g></g><g stroke-linecap="round"><g transform="translate(1112.070703835401 721.5918714266797) rotate(0 15.49141655525682 0.4820842301604955)"><path d="M-1.18 0.74 C3.86 0.82, 24.34 -0.09, 29.76 -0.11 M0.41 0.08 C5.88 0.37, 27.05 0.76, 32.16 1.07" stroke="#e67700" stroke-width="2" fill="none"></path></g><g transform="translate(1112.070703835401 721.5918714266797) rotate(0 15.49141655525682 0.4820842301604955)"><path d="M18.65 4.99 C20.68 5.88, 25.39 3.66, 32 1.51 M18.31 6.23 C22.86 4.7, 26.47 3.37, 32.37 0.99" stroke="#e67700" stroke-width="2" fill="none"></path></g><g transform="translate(1112.070703835401 721.5918714266797) rotate(0 15.49141655525682 0.4820842301604955)"><path d="M19.04 -5.39 C20.91 -1.78, 25.52 -1.28, 32 1.51 M18.69 -4.15 C23.17 -2.28, 26.66 -0.22, 32.37 0.99" stroke="#e67700" stroke-width="2" fill="none"></path></g></g><g stroke-linecap="round"><g transform="translate(1113.1947134086079 690.6816081634925) rotate(0 15.522668075324304 -0.40055030562717775)"><path d="M-0.54 -0.33 C4.31 -0.25, 24.17 -0.66, 29.38 -0.32 M1.38 -1.55 C6.56 -1.27, 26.79 0.51, 31.59 0.75" stroke="#e67700" stroke-width="2" fill="none"></path></g><g transform="translate(1113.1947134086079 690.6816081634925) rotate(0 15.522668075324304 -0.40055030562717775)"><path d="M16.57 3.68 C20.65 4.07, 27.92 1.04, 32.8 1.43 M17.59 4.88 C20.46 3.29, 23.97 3.36, 31.35 0.3" stroke="#e67700" stroke-width="2" fill="none"></path></g><g transform="translate(1113.1947134086079 690.6816081634925) rotate(0 15.522668075324304 -0.40055030562717775)"><path d="M17.31 -6.67 C21.09 -2.91, 28.11 -2.57, 32.8 1.43 M18.33 -5.48 C21.1 -4.34, 24.41 -1.53, 31.35 0.3" stroke="#e67700" stroke-width="2" fill="none"></path></g></g><g stroke-linecap="round"><g transform="translate(1114.7567181952113 658.6473353270983) rotate(0 15.044942263574626 0.2781487353857699)"><path d="M1.05 -0.81 C6.21 -0.91, 25.03 -0.41, 29.94 -0.29 M0.15 1.38 C5.2 1.38, 23.82 0.88, 28.78 0.81" stroke="#e67700" stroke-width="2" fill="none"></path></g><g transform="translate(1114.7567181952113 658.6473353270983) rotate(0 15.044942263574626 0.2781487353857699)"><path d="M13.61 5.79 C16.6 5.24, 19.94 4.92, 27.83 -0.06 M14.03 6.03 C17.13 5.11, 21.06 3.68, 28.07 0.77" stroke="#e67700" stroke-width="2" fill="none"></path></g><g transform="translate(1114.7567181952113 658.6473353270983) rotate(0 15.044942263574626 0.2781487353857699)"><path d="M13.39 -4.59 C16.45 -2.9, 19.84 -0.98, 27.83 -0.06 M13.81 -4.35 C16.86 -3.08, 20.83 -2.32, 28.07 0.77" stroke="#e67700" stroke-width="2" fill="none"></path></g></g><g transform="translate(1170.8327396744191 743.5436730288502) rotate(0 35 12.5)"><text x="0" y="18" font-family="Virgil, Segoe UI Emoji" font-size="20px" fill="#1864ab" text-anchor="start" style="white-space: pre;" direction="ltr">SWDIO</text></g><g transform="translate(1170.5847205280056 711.1373714728355) rotate(0 15 12.5)"><text x="0" y="18" font-family="Virgil, Segoe UI Emoji" font-size="20px" fill="#1864ab" text-anchor="start" style="white-space: pre;" direction="ltr">TX</text></g><g transform="translate(1171.3947444610226 680.0371321426653) rotate(0 14 12.5)"><text x="0" y="18" font-family="Virgil, Segoe UI Emoji" font-size="20px" fill="#1864ab" text-anchor="start" style="white-space: pre;" direction="ltr">RX</text></g><g transform="translate(1170.8327396744194 647.4408545196678) rotate(0 40 12.5)"><text x="0" y="18" font-family="Virgil, Segoe UI Emoji" font-size="20px" fill="#1864ab" text-anchor="start" style="white-space: pre;" direction="ltr">nRESET</text></g><g stroke-linecap="round"><g transform="translate(630.6447028517011 819.7849525712231) rotate(0 71.70577837834202 0.4970498554800429)"><path d="M-0.1 1.13 C23.98 1.08, 120.79 -0.19, 145.03 -0.3 M-1.62 0.68 C22.27 0.83, 119.76 1.55, 144.17 1.19" stroke="#1864ab" stroke-width="2" fill="none"></path></g></g><g stroke-linecap="round" transform="translate(254.2156693025654 349.3494596196528) rotate(0 6.413951633036049 5.612207678906543)"><path d="M6.96 0.8 C8.19 0.7, 9.57 0.26, 10.55 1.06 C11.53 1.86, 12.56 4.23, 12.86 5.62 C13.16 7, 13.07 8.44, 12.35 9.37 C11.63 10.3, 9.87 11.12, 8.52 11.22 C7.17 11.31, 5.59 10.35, 4.24 9.94 C2.89 9.53, 1.2 9.68, 0.43 8.75 C-0.34 7.82, -0.75 5.75, -0.38 4.34 C-0.01 2.94, 1.31 1.14, 2.66 0.33 C4 -0.47, 6.8 -0.4, 7.68 -0.46 C8.56 -0.53, 8.19 -0.35, 7.96 -0.04 M2.02 -0.12 C3.06 -1.13, 6.09 -1.38, 7.64 -1.02 C9.18 -0.66, 10.27 1.14, 11.3 2.05 C12.34 2.96, 13.95 3.36, 13.85 4.45 C13.74 5.54, 11.8 7.59, 10.67 8.61 C9.53 9.64, 8.09 10.53, 7.02 10.59 C5.95 10.66, 5.6 9.75, 4.26 9.01 C2.92 8.27, -0.58 6.99, -1.01 6.17 C-1.43 5.35, 1.01 4.86, 1.72 4.09 C2.43 3.32, 3.2 1.88, 3.26 1.53 C3.32 1.18, 2.02 2.14, 2.07 1.99" stroke="#862e9c" stroke-width="2" fill="none"></path></g><g stroke-linecap="round" transform="translate(252.6449982082521 313.1945649195998) rotate(0 6.413951633036049 5.612207678906543)"><path d="M8.55 0.08 C9.81 0.19, 10.31 1.26, 11.18 2.28 C12.04 3.3, 13.59 5.05, 13.74 6.23 C13.89 7.41, 13.1 8.51, 12.07 9.35 C11.05 10.19, 9.28 11.15, 7.61 11.25 C5.95 11.36, 3.24 10.71, 2.08 9.98 C0.93 9.24, 1.01 7.88, 0.7 6.86 C0.39 5.83, -0.06 4.76, 0.23 3.82 C0.53 2.87, 1.14 1.73, 2.47 1.18 C3.8 0.63, 7.08 0.73, 8.21 0.54 C9.34 0.35, 9.09 0.16, 9.27 0.05 M6.33 -0.08 C7.22 0.18, 8.84 0.5, 9.9 1.56 C10.96 2.62, 12.65 5.12, 12.71 6.26 C12.76 7.41, 11.15 7.66, 10.23 8.41 C9.31 9.16, 8.39 10.2, 7.19 10.78 C5.99 11.36, 4.34 12.6, 3.01 11.89 C1.67 11.19, -0.16 7.66, -0.82 6.56 C-1.47 5.46, -1.63 6.25, -0.92 5.3 C-0.21 4.34, 1.94 1.91, 3.43 0.8 C4.91 -0.31, 7.16 -1.23, 7.98 -1.36 C8.79 -1.48, 8.57 -0.27, 8.32 0.05" stroke="#862e9c" stroke-width="2" fill="none"></path></g><g stroke-linecap="round" transform="translate(251.51921930279082 283.16605947079415) rotate(0 6.413951633036049 5.612207678906543)"><path d="M6.19 -0.29 C7.44 -0.38, 9.37 1.19, 10.52 2.13 C11.67 3.08, 12.86 4.3, 13.12 5.38 C13.37 6.46, 12.75 7.84, 12.04 8.59 C11.33 9.34, 10.2 9.45, 8.86 9.9 C7.52 10.36, 5.4 11.59, 4 11.33 C2.6 11.06, 1.07 9.56, 0.46 8.32 C-0.14 7.07, 0.01 5.09, 0.38 3.85 C0.75 2.62, 1.48 1.59, 2.68 0.91 C3.88 0.24, 6.75 -0.27, 7.59 -0.22 C8.43 -0.17, 7.94 1.03, 7.73 1.2 M9.1 -0.58 C10.52 -0.03, 11.35 2.15, 12.1 3.21 C12.85 4.28, 14.04 4.74, 13.61 5.79 C13.17 6.84, 10.85 8.7, 9.5 9.5 C8.14 10.31, 6.55 10.84, 5.47 10.62 C4.4 10.39, 4.18 9.12, 3.06 8.16 C1.93 7.2, -1.21 5.72, -1.3 4.84 C-1.4 3.97, 1.46 3.54, 2.47 2.9 C3.47 2.27, 3.81 1.23, 4.7 1.04 C5.59 0.85, 7.1 1.94, 7.82 1.79 C8.55 1.64, 8.89 0.11, 9.06 0.14" stroke="#862e9c" stroke-width="2" fill="none"></path></g><g stroke-linecap="round" transform="translate(253.32624118278954 250.64752792259674) rotate(0 6.413951633036049 5.612207678906543)"><path d="M7.63 0.28 C8.94 0.56, 11.49 1.76, 12.5 2.71 C13.51 3.65, 13.9 4.81, 13.71 5.95 C13.52 7.1, 12.61 8.76, 11.36 9.57 C10.11 10.38, 7.55 10.76, 6.19 10.8 C4.84 10.84, 4.27 10.35, 3.25 9.8 C2.22 9.25, 0.63 8.49, 0.03 7.5 C-0.58 6.52, -0.91 5.01, -0.4 3.88 C0.11 2.76, 1.57 1.46, 3.07 0.75 C4.56 0.04, 7.35 -0.23, 8.58 -0.37 C9.82 -0.5, 10.42 -0.43, 10.46 -0.06 M2.42 0.42 C3.66 0.03, 6.52 0.96, 7.82 1.18 C9.12 1.41, 9.51 1.02, 10.22 1.77 C10.92 2.52, 12.02 4.19, 12.06 5.68 C12.11 7.17, 11.53 10.03, 10.48 10.73 C9.43 11.43, 7.23 9.73, 5.77 9.87 C4.3 10, 2.51 12, 1.69 11.54 C0.87 11.07, 0.89 8.64, 0.84 7.05 C0.8 5.46, 0.75 3.07, 1.41 1.97 C2.07 0.88, 4.51 0.71, 4.79 0.49 C5.07 0.26, 3.1 0.39, 3.09 0.61" stroke="#862e9c" stroke-width="2" fill="none"></path></g><g transform="translate(162.50294716173084 312.27209549684414) rotate(0 33 12.5)"><text x="0" y="18" font-family="Virgil, Segoe UI Emoji" font-size="20px" fill="#1864ab" text-anchor="start" style="white-space: pre;" direction="ltr">SWCLK</text></g><g transform="translate(161.95936838283046 277.2378226604503) rotate(0 35 12.5)"><text x="0" y="18" font-family="Virgil, Segoe UI Emoji" font-size="20px" fill="#1864ab" text-anchor="start" style="white-space: pre;" direction="ltr">SWDIO</text></g><g stroke-linecap="round"><g transform="translate(306.07472452223294 411.67265207383343) rotate(0 0.25487194262640855 19.951017634001133)"><path d="M0.88 1.02 C0.91 7.2, 0.75 31.81, 0.45 38.3 M-0.12 0.5 C-0.23 7.32, -0.53 33.14, -0.27 39.4" stroke="#1864ab" stroke-width="2" fill="none"></path></g></g><g stroke-linecap="round"><g transform="translate(286.6885104786995 451.82357332839547) rotate(0 23.127900672847517 -0.24258057586848736)"><path d="M1.02 0.45 C8.13 0.14, 36.47 -0.74, 43.9 -0.93 M0.09 -0.37 C7.48 -0.62, 38.64 0.02, 46.17 0.12" stroke="#1864ab" stroke-width="2" fill="none"></path></g></g><g stroke-linecap="round"><g transform="translate(294.46108715496223 461.0192297837607) rotate(0 12.839910260491735 0.23977882716269505)"><path d="M0.45 -0.84 C4.34 -0.88, 20.23 0.55, 24.24 0.83 M-0.78 1.33 C3.41 1.48, 21.83 -0.46, 26.46 -0.86" stroke="#1864ab" stroke-width="2" fill="none"></path></g></g><g stroke-linecap="round"><g transform="translate(299.35269998874344 467.4532935437867) rotate(0 6.7468094955325455 0.11972707146625794)"><path d="M-0.84 -0.93 C1.38 -1.07, 11.8 -0.6, 14.34 -0.37 M0.91 1.19 C2.96 1.16, 11.64 0.69, 13.83 0.8" stroke="#1864ab" stroke-width="2" fill="none"></path></g></g><g stroke-linecap="round"><g transform="translate(268.06703094908 355.20741859257413) rotate(0 17.51836688091882 -0.32814225666225383)"><path d="M-0.24 0.29 C6 0.07, 30.45 -0.85, 36.86 -0.94 M-1.82 -0.61 C4.27 -0.74, 29.07 -0.16, 35.69 0.1" stroke="#1864ab" stroke-width="2" fill="none"></path></g></g><g stroke-linecap="round"><g transform="translate(306.2759332020321 355.7694233791775) rotate(0 -0.13437321366006927 29.08387451993501)"><path d="M1.03 0.17 C0.73 9.86, -0.9 49.38, -1.3 58.95 M0.11 -0.78 C0.15 8.47, 0.86 47.22, 1.03 57.09" stroke="#1864ab" stroke-width="2" fill="none"></path></g></g><g transform="translate(181.87965432529415 345.903712427115) rotate(0 23 12.5)"><text x="0" y="18" font-family="Virgil, Segoe UI Emoji" font-size="20px" fill="#1864ab" text-anchor="start" style="white-space: pre;" direction="ltr">GND</text></g><g transform="translate(190.25254631265796 240.68406094331056) rotate(0 20 12.5)"><text x="0" y="18" font-family="Virgil, Segoe UI Emoji" font-size="20px" fill="#1864ab" text-anchor="start" style="white-space: pre;" direction="ltr">3V3</text></g><g stroke-linecap="round"><g transform="translate(305.50419807812807 225.4793834203586) rotate(0 -0.3343992030070808 -17.389688484539732)"><path d="M0.12 -0.19 C0.29 -6, 0.76 -28.87, 0.56 -34.59 M-1.28 -1.34 C-1.14 -6.97, -0.37 -27.78, 0.08 -33.09" stroke="#1864ab" stroke-width="2" fill="none"></path></g><g transform="translate(305.50419807812807 225.4793834203586) rotate(0 -0.3343992030070808 -17.389688484539732)"><path d="M4.77 -15.27 C3.62 -21.92, 2.45 -26.54, -1.55 -34.45 M5.91 -16.85 C3.44 -22.23, 1.8 -29.35, -0.1 -32.55" stroke="#1864ab" stroke-width="2" fill="none"></path></g><g transform="translate(305.50419807812807 225.4793834203586) rotate(0 -0.3343992030070808 -17.389688484539732)"><path d="M-7.01 -15.94 C-5.11 -22.43, -3.22 -26.87, -1.55 -34.45 M-5.88 -17.52 C-4.07 -22.77, -1.42 -29.65, -0.1 -32.55" stroke="#1864ab" stroke-width="2" fill="none"></path></g></g><g transform="translate(289.8621629697378 164.2646653507664) rotate(0 20 12.5)"><text x="0" y="18" font-family="Virgil, Segoe UI Emoji" font-size="20px" fill="#1864ab" text-anchor="start" style="white-space: pre;" direction="ltr">3v3</text></g><g stroke-linecap="round"><g transform="translate(265.86237205456024 258.6077543187644) rotate(0 19.374520471287383 0.2674188053249118)"><path d="M0.7 0.56 C7.32 0.71, 32.88 1.07, 39.14 1.28 M-0.39 -0.2 C6.12 -0.47, 31.39 -0.74, 38.23 -0.74" stroke="#1864ab" stroke-width="2" fill="none"></path></g></g><g stroke-linecap="round"><g transform="translate(303.82822568273707 259.6924929938552) rotate(0 1.0963325342145822 -17.23548205131514)"><path d="M1.1 0.26 C1.61 -5.33, 2.05 -27.16, 1.97 -32.77 M0.21 -0.66 C0.74 -6.69, 1.59 -29.47, 1.48 -34.73" stroke="#1864ab" stroke-width="2" fill="none"></path></g></g><g stroke-linecap="round" transform="translate(234.71037729618723 226.30205704286777) rotate(0 24.37237803905566 79.76301431111773)"><path d="M12.19 0 M12.19 0 C18.61 -0.68, 24.69 -0.37, 36.56 0 M36.56 0 C46.56 1.46, 48.4 5.33, 48.74 12.19 M48.74 12.19 C49.2 62.23, 48.59 113.26, 48.74 147.34 M48.74 147.34 C47.3 156.65, 44.15 157.65, 36.56 159.53 M36.56 159.53 C32.78 160.1, 28.25 159.48, 12.19 159.53 M12.19 159.53 C2.93 160.37, 1.31 153.69, 0 147.34 M0 147.34 C-0.14 120.42, 0.13 91.6, 0 12.19 M0 12.19 C1.32 2.65, 2.74 -0.74, 12.19 0" stroke="#1864ab" stroke-width="1.5" fill="none" stroke-dasharray="8 9"></path></g><g stroke-linecap="round"><g transform="translate(268.13200230287924 319.8294982385696) rotate(0 108.33499012975346 2.6903509723518155)"><path d="M0.11 0.51 C36.58 1.43, 181.61 3.79, 217.97 4.46 M-1.3 -0.27 C35.04 0.89, 180.29 4.68, 216.73 5.65" stroke="#1864ab" stroke-width="2" fill="none"></path></g></g><g stroke-linecap="round"><g transform="translate(265.3541643923292 290.197158342043) rotate(0 127.91874971245815 1.4752518565144115)"><path d="M-1 0.68 C41.48 1.1, 211.7 1.59, 254.53 1.63 M0.68 0 C43.58 0.66, 214.36 2.68, 256.84 2.95" stroke="#1864ab" stroke-width="2" fill="none"></path></g></g><g transform="translate(93.43397692116253 574.8153592569755) rotate(0 95 12.5)"><text x="0" y="18" font-family="Virgil, Segoe UI Emoji" font-size="20px" fill="#d9480f" text-anchor="start" style="white-space: pre;" direction="ltr">boot select button</text></g><g transform="translate(526.3065860169747 1131.6467021640824) rotate(0 64.5 12.5)"><text x="0" y="18" font-family="Virgil, Segoe UI Emoji" font-size="20px" fill="#d9480f" text-anchor="start" style="white-space: pre;" direction="ltr">reset button</text></g><g transform="translate(1063.6416278946733 839.0430052785707) rotate(0 86.5 18)"><text x="0" y="25" font-family="Virgil, Segoe UI Emoji" font-size="28px" fill="#d9480f" text-anchor="start" style="white-space: pre;" direction="ltr">Debug Probe</text></g><g transform="translate(10 286.1646145185888) rotate(0 66.5 18)"><text x="0" y="25" font-family="Virgil, Segoe UI Emoji" font-size="28px" fill="#d9480f" text-anchor="start" style="white-space: pre;" direction="ltr">SWD port</text></g><g transform="translate(414.5904842737494 383.0394743813855) rotate(270 56.49999999999997 9.5)"><text x="0" y="15" font-family="Helvetica, Segoe UI Emoji" font-size="16px" fill="#1864ab" text-anchor="start" style="white-space: pre;" direction="ltr">PA14 SWDCLK</text></g><g transform="translate(459.43878728120853 390.67332488022504) rotate(270 49.5 9.5)"><text x="0" y="15" font-family="Helvetica, Segoe UI Emoji" font-size="16px" fill="#1864ab" text-anchor="start" style="white-space: pre;" direction="ltr">PA13 SWDIO</text></g><g transform="translate(464.90732554036674 360.0669449786142) rotate(270 82 9.5)"><text x="0" y="15" font-family="Helvetica, Segoe UI Emoji" font-size="16px" fill="#1864ab" text-anchor="start" style="white-space: pre;" direction="ltr">PA12 USB DP (D plus)</text></g><g transform="translate(492.6390707017367 351.5920038045449) rotate(270 90.5 9.5)"><text x="0" y="15" font-family="Helvetica, Segoe UI Emoji" font-size="16px" fill="#1864ab" text-anchor="start" style="white-space: pre;" direction="ltr">PA11 USB DM (M minus)</text></g><g stroke-linecap="round"><g transform="translate(561.0362792098907 234.8413654248438) rotate(0 244.74146382437885 0.3246405315635794)"><path d="M-0.9 -0.29 C80.73 -0.3, 408.6 0.67, 490.39 0.8 M0.82 -1.48 C82.21 -1.41, 407.33 1.64, 489.22 2.13" stroke="#1864ab" stroke-width="2" fill="none"></path></g></g><g stroke-linecap="round" transform="translate(1010.9406461287315 149.208338245178) rotate(0 6.413951633036049 5.612207678906543)"><path d="M8.06 0.85 C9.12 1.06, 11.05 1.46, 11.68 2.51 C12.3 3.56, 12 5.99, 11.81 7.15 C11.61 8.32, 11.37 8.79, 10.51 9.5 C9.65 10.21, 7.92 11.23, 6.67 11.43 C5.43 11.64, 4.19 11.57, 3.01 10.73 C1.84 9.9, 0.03 7.8, -0.38 6.42 C-0.79 5.05, -0.15 3.53, 0.54 2.48 C1.24 1.44, 2.26 0.34, 3.78 0.17 C5.3 0.01, 8.56 1.43, 9.64 1.5 C10.73 1.56, 10.26 0.53, 10.3 0.57 M6.17 0.97 C7.46 1.34, 10 2.16, 11.03 2.72 C12.06 3.29, 12.37 3.51, 12.35 4.37 C12.33 5.23, 11.66 6.84, 10.93 7.9 C10.2 8.96, 9.24 10.09, 7.99 10.73 C6.74 11.37, 4.58 11.95, 3.44 11.71 C2.31 11.48, 1.64 10.65, 1.17 9.33 C0.7 8, 0.46 5.31, 0.62 3.78 C0.79 2.25, 1.34 0.66, 2.15 0.16 C2.97 -0.35, 4.8 0.67, 5.53 0.73 C6.25 0.78, 6.2 0.41, 6.51 0.49" stroke="#862e9c" stroke-width="2" fill="none"></path></g><g stroke-linecap="round" transform="translate(1045.2632480961627 150.59687996908073) rotate(0 6.413951633036049 5.612207678906543)"><path d="M9.64 0.23 C10.74 0.59, 11.33 1.19, 11.92 2.33 C12.5 3.47, 13.53 5.71, 13.15 7.07 C12.77 8.43, 10.84 9.69, 9.66 10.5 C8.47 11.31, 7.21 12.18, 6.05 11.94 C4.89 11.71, 3.73 10.13, 2.7 9.1 C1.68 8.07, 0.19 6.95, -0.12 5.76 C-0.43 4.56, 0.08 2.8, 0.86 1.92 C1.65 1.04, 2.88 0.54, 4.61 0.47 C6.34 0.41, 10.21 1.1, 11.24 1.52 C12.26 1.94, 10.9 2.94, 10.78 2.99 M7.75 0.07 C9.39 0.13, 11.18 0.38, 11.89 1.08 C12.59 1.78, 12.18 3, 12 4.26 C11.82 5.52, 11.49 7.57, 10.81 8.66 C10.13 9.74, 8.91 10.31, 7.93 10.76 C6.94 11.21, 5.87 11.72, 4.89 11.35 C3.91 10.97, 2.89 9.79, 2.04 8.51 C1.2 7.24, -0.12 5.18, -0.17 3.7 C-0.22 2.21, 0.47 0.32, 1.75 -0.38 C3.03 -1.07, 6.61 -0.63, 7.51 -0.47 C8.41 -0.31, 7.17 0.61, 7.15 0.6" stroke="#862e9c" stroke-width="2" fill="none"></path></g><g stroke-linecap="round" transform="translate(1082.46418449392 149.76968141796544) rotate(0 6.413951633036049 5.612207678906543)"><path d="M7.43 -0.2 C8.67 -0.02, 9.64 1.76, 10.54 2.69 C11.44 3.62, 12.66 4.23, 12.82 5.37 C12.97 6.52, 12.27 8.46, 11.47 9.57 C10.68 10.67, 9.55 11.89, 8.06 12 C6.57 12.12, 3.89 11.06, 2.55 10.23 C1.2 9.41, 0.41 8.2, -0.01 7.05 C-0.44 5.91, -0.61 4.28, 0 3.36 C0.61 2.44, 2.03 2.06, 3.68 1.53 C5.32 1.01, 8.51 0.06, 9.87 0.2 C11.22 0.34, 11.89 2.19, 11.81 2.37 M4.54 1.32 C5.82 0.62, 7.27 -0.48, 8.41 -0.36 C9.55 -0.23, 10.68 0.92, 11.39 2.06 C12.09 3.21, 12.84 5.01, 12.63 6.51 C12.41 8.02, 11.07 10.08, 10.09 11.09 C9.11 12.1, 7.99 12.87, 6.73 12.59 C5.46 12.31, 3.69 10.58, 2.48 9.4 C1.27 8.22, -0.06 6.52, -0.55 5.51 C-1.05 4.49, -1.24 4.12, -0.48 3.3 C0.28 2.49, 3.09 1, 4 0.62 C4.91 0.23, 5.07 1.1, 4.99 0.99" stroke="#862e9c" stroke-width="2" fill="none"></path></g><g stroke-linecap="round" transform="translate(1117.9059555130832 148.88589900893257) rotate(0 6.413951633036049 5.612207678906543)"><path d="M4.3 -0.69 C5.54 -1.03, 8.3 -0.22, 9.54 0.47 C10.78 1.15, 11.19 2.21, 11.74 3.41 C12.29 4.62, 12.97 6.64, 12.85 7.68 C12.74 8.72, 12.21 9.13, 11.04 9.66 C9.88 10.19, 7.42 10.96, 5.85 10.88 C4.29 10.81, 2.67 9.93, 1.68 9.21 C0.68 8.48, -0.17 7.57, -0.12 6.51 C-0.08 5.45, 0.98 3.77, 1.95 2.83 C2.92 1.89, 4.62 1.25, 5.67 0.85 C6.73 0.45, 8.19 0.57, 8.3 0.42 M5.71 -0.24 C6.66 -0.75, 7.33 -0.79, 8.25 -0.23 C9.16 0.33, 10.55 1.94, 11.23 3.11 C11.91 4.27, 12.33 5.47, 12.32 6.75 C12.32 8.02, 12.04 9.93, 11.21 10.74 C10.37 11.55, 8.93 11.89, 7.33 11.61 C5.73 11.32, 2.96 10.19, 1.61 9.04 C0.25 7.89, -0.84 5.89, -0.81 4.71 C-0.77 3.54, 0.84 2.66, 1.8 1.99 C2.77 1.32, 4.42 1.16, 5.01 0.69 C5.59 0.22, 5.48 -0.68, 5.31 -0.82" stroke="#862e9c" stroke-width="2" fill="none"></path></g><g stroke-linecap="round"><g transform="translate(1015.3980122015116 162.26383331056869) rotate(0 -0.5629461416898494 19.173458712487754)"><path d="M-0.08 -0.59 C0.07 5.81, 0.35 31.36, 0.46 37.97 M-1.59 1.71 C-1.54 8.26, -0.72 32.49, -0.46 38.94" stroke="#1864ab" stroke-width="2" fill="none"></path></g></g><g stroke-linecap="round"><g transform="translate(1014.5687110302358 201.25931212487052) rotate(0 -58.043829530401865 0.4591960344963937)"><path d="M-1.05 -0.61 C-20.34 -0.56, -96.77 0.95, -116.09 1.05 M0.61 1.68 C-18.76 1.31, -96.95 -0.67, -116.69 -0.76" stroke="#1864ab" stroke-width="2" fill="none"></path></g></g><g stroke-linecap="round"><g transform="translate(876.9903210051219 171.67418127548393) rotate(0 22.35604243449319 0.49674020667264784)"><path d="M-0.61 0.66 C6.81 0.79, 37.84 -0.25, 45.32 -0.22 M1.27 -0.04 C8.52 0.37, 37.67 1.37, 44.68 1.2" stroke="#1864ab" stroke-width="2" fill="none"></path></g></g><g stroke-linecap="round"><g transform="translate(884.7628976813847 160.86983773084916) rotate(0 12.243178869715564 0.2222646961874588)"><path d="M0.66 0.58 C4.99 0.61, 20.72 -0.51, 24.94 -0.43 M-0.46 -0.16 C3.79 0.09, 19.52 0.97, 23.88 0.88" stroke="#1864ab" stroke-width="2" fill="none"></path></g></g><g stroke-linecap="round"><g transform="translate(889.6545105151657 149.30390149087515) rotate(0 6.251325285168036 -0.12408506481887116)"><path d="M0.58 -0.22 C2.86 -0.13, 10.74 0.91, 13.07 1.19 M-0.57 -1.39 C1.57 -1.69, 9.41 -0.68, 11.9 -0.49" stroke="#1864ab" stroke-width="2" fill="none"></path></g></g><g transform="translate(981.1967053038213 176.62301068199375) rotate(0 15 10)"><text x="0" y="16" font-family="Cascadia, Segoe UI Emoji" font-size="16px" fill="#1864ab" text-anchor="start" style="white-space: pre;" direction="ltr">GND</text></g><g transform="translate(1029.641121901045 181.33973180273082) rotate(270 10.5 10)"><text x="0" y="16" font-family="Cascadia, Segoe UI Emoji" font-size="16px" fill="#1864ab" text-anchor="start" style="white-space: pre;" direction="ltr">D+</text></g><g transform="translate(1064.1009527213148 180.8397318027308) rotate(270 10.5 10)"><text x="0" y="16" font-family="Cascadia, Segoe UI Emoji" font-size="16px" fill="#1864ab" text-anchor="start" style="white-space: pre;" direction="ltr">D-</text></g><g stroke-linecap="round"><g transform="translate(1125.4694708263764 161.65547275020015) rotate(0 0.24665376235395797 75.07279959762026)"><path d="M0.16 1.1 C0.43 26.08, 1.75 125.06, 1.7 149.51 M-1.21 0.64 C-1.05 25.3, 0.59 123.07, 1.16 147.72" stroke="#1864ab" stroke-width="2" fill="none"></path></g></g><g transform="translate(1076.95405660333 207.16481348383647) rotate(270 35 9.5)"><text x="0" y="15" font-family="Helvetica, Segoe UI Emoji" font-size="16px" fill="#1864ab" text-anchor="start" style="white-space: pre;" direction="ltr">5V VBUS</text></g><g stroke-linecap="round" transform="translate(992.2803109075066 138.3213845887704) rotate(0 80.30359396864844 17.056756742465474)"><path d="M8.53 0 M8.53 0 C62.88 0.42, 117.35 -0.38, 152.08 0 M8.53 0 C59.48 1.17, 109.63 1.13, 152.08 0 M152.08 0 C157.03 0.64, 162.52 3.38, 160.61 8.53 M152.08 0 C159.09 -0.31, 162.64 1.28, 160.61 8.53 M160.61 8.53 C160.82 14.21, 161.16 18.03, 160.61 25.59 M160.61 8.53 C160.32 11.5, 161 16.8, 160.61 25.59 M160.61 25.59 C159.19 31.77, 159.26 33.18, 152.08 34.11 M160.61 25.59 C162.11 29.04, 157.46 34.78, 152.08 34.11 M152.08 34.11 C108.82 33.26, 67.07 32.43, 8.53 34.11 M152.08 34.11 C122.46 35.01, 90.09 34.11, 8.53 34.11 M8.53 34.11 C0.91 33.22, 1.25 30.21, 0 25.59 M8.53 34.11 C4.03 33.51, -0.58 29.02, 0 25.59 M0 25.59 C-1.44 20.53, 0.36 14.54, 0 8.53 M0 25.59 C-0.23 20.52, 0.33 15.7, 0 8.53 M0 8.53 C-0.42 4.35, 2.26 1.66, 8.53 0 M0 8.53 C-1.42 1.85, 4.58 -1.11, 8.53 0" stroke="#1864ab" stroke-width="1" fill="none"></path></g><g stroke-linecap="round"><g transform="translate(991.8383342086397 78.9235773354867) rotate(0 -0.7681145612589262 31.854212655722158)"><path d="M0.03 -1.12 C-0.12 9.41, -1.68 52.92, -1.84 63.7 M-1.42 0.91 C-1.12 11.53, 0.37 54.24, 0.31 64.83" stroke="#1864ab" stroke-width="1" fill="none"></path></g></g><g stroke-linecap="round"><g transform="translate(1152.2791382844352 79.52679710044595) rotate(0 0.5567057466390679 30.21445262616436)"><path d="M-1.16 -0.13 C-1.32 10.33, -0.32 51.51, -0.07 61.67 M0.43 -1.24 C0.59 8.93, 2.45 49.16, 2.28 59.67" stroke="#1864ab" stroke-width="1" fill="none"></path></g></g><g stroke-linecap="round"><g transform="translate(1003.2308009941407 65.5345042119693) rotate(0 67.48968148002064 -0.1372385428112466)"><path d="M-0.12 -1.17 C22.72 -1.18, 113.75 -1, 136.62 -0.9 M-1.64 0.83 C21.11 1.08, 112.79 0.49, 135.85 0.49" stroke="#1864ab" stroke-width="1" fill="none"></path></g></g><g stroke-linecap="round"><g transform="translate(1140.9162639991218 63.764497627751155) rotate(0 6.523175573852086 8.710943146183197)"><path d="M-0.37 0.52 C1.34 3.22, 9.15 13.91, 11.28 16.66 M1.63 -0.25 C3.61 2.53, 11.75 14.62, 13.42 17.67" stroke="#1864ab" stroke-width="1" fill="none"></path></g></g><g stroke-linecap="round"><g transform="translate(1000.3676737593564 65.9743811220871) rotate(0 -3.412461240379571 6.095230238518255)"><path d="M0.39 -1.08 C-0.72 1.07, -5.3 9.56, -6.85 11.8 M-0.86 0.97 C-2.02 3.4, -6.28 11.73, -7.22 13.27" stroke="#1864ab" stroke-width="1" fill="none"></path></g></g><g transform="translate(1006.8556587621856 10) rotate(0 65.5 18)"><text x="0" y="25" font-family="Virgil, Segoe UI Emoji" font-size="28px" fill="#d9480f" text-anchor="start" style="white-space: pre;" direction="ltr">USB port</text></g><g stroke-linecap="round" transform="translate(1062.23737127146 311.5910064393346) rotate(0 110.96645947623949 91.73111389180896)"><path d="M45.65 1.16 L180.24 -0.47 L201.1 6.27 L211.03 12.67 L220.27 26.54 L222.45 45.91 L223.2 142.49 L220.16 159.11 L212.15 171.9 L195.58 181.55 L175.65 183.16 L41.54 181.35 L22.01 179.95 L10.12 170.26 L3.13 162.71 L0.63 142.15 L0.78 47.61 L3.51 29.95 L4.96 18.5 L10.24 11.14 L17.06 6.01 L31.69 1.97 L45.4 -0.25" stroke="none" stroke-width="0" fill="#fff"></path><path d="M45.87 0 M45.87 0 C88.51 1.91, 131.73 -1.44, 176.07 0 M45.87 0 C78.67 0.82, 111.23 1.22, 176.07 0 M176.07 0 C207.71 -1.63, 221.64 14.42, 221.93 45.87 M176.07 0 C204.86 0.99, 221.43 13.61, 221.93 45.87 M221.93 45.87 C221.82 76.77, 224.57 108.94, 221.93 137.6 M221.93 45.87 C221.8 65.89, 221.5 84.74, 221.93 137.6 M221.93 137.6 C220.65 169.93, 204.76 181.94, 176.07 183.46 M221.93 137.6 C222.3 168.44, 205.91 182.15, 176.07 183.46 M176.07 183.46 C131.23 182.86, 85.79 185.24, 45.87 183.46 M176.07 183.46 C144.8 183.91, 114.56 183.65, 45.87 183.46 M45.87 183.46 C13.88 183.7, 1.95 166.24, 0 137.6 M45.87 183.46 C14.35 181.4, 1.71 166.91, 0 137.6 M0 137.6 C1.38 120.45, -1.64 100, 0 45.87 M0 137.6 C-0.5 108.62, 0.33 79.8, 0 45.87 M0 45.87 C-0.48 13.73, 14.07 -0.31, 45.87 0 M0 45.87 C1.26 16.35, 13.33 -1.9, 45.87 0" stroke="#1864ab" stroke-width="4" fill="none"></path></g><g transform="translate(1146.969706024668 356.2376715892573) rotate(0 32.5 22)"><text x="0" y="35" font-family="Cascadia, Segoe UI Emoji" font-size="36px" fill="#1864ab" text-anchor="start" style="white-space: pre;" direction="ltr">LDO</text></g><g transform="translate(1080.367422826499 402.8508297692193) rotate(0 94 16.5)"><text x="0" y="26" font-family="Helvetica, Segoe UI Emoji" font-size="28px" fill="#1864ab" text-anchor="start" style="white-space: pre;" direction="ltr">AMS1117-3.3V</text></g><g transform="translate(1110.6277907670717 325.1833725224466) rotate(0 16.5 9.5)"><text x="0" y="15" font-family="Helvetica, Segoe UI Emoji" font-size="16px" fill="#1864ab" text-anchor="start" style="white-space: pre;" direction="ltr">V-IN</text></g><g transform="translate(1204.3266290377774 324.13448413913903) rotate(0 19 9.5)"><text x="0" y="15" font-family="Helvetica, Segoe UI Emoji" font-size="16px" fill="#1864ab" text-anchor="start" style="white-space: pre;" direction="ltr">GND</text></g><g transform="translate(1108.4641809904347 464.1137795258407) rotate(0 25.5 9.5)"><text x="0" y="15" font-family="Helvetica, Segoe UI Emoji" font-size="16px" fill="#1864ab" text-anchor="start" style="white-space: pre;" direction="ltr">V-OUT</text></g><g transform="translate(1205.3762670618837 465.4555804327058) rotate(0 19 9.5)"><text x="0" y="15" font-family="Helvetica, Segoe UI Emoji" font-size="16px" fill="#1864ab" text-anchor="start" style="white-space: pre;" direction="ltr">GND</text></g><g stroke-linecap="round"><g transform="translate(1222.9435649656764 501.0893997347428) rotate(0 0.4040179583597592 19.14235107811963)"><path d="M-0.77 -0.23 C-0.79 6.26, -0.98 32.12, -0.69 38.49 M1.03 -1.39 C1.45 5.28, 1.7 33, 1.65 39.68" stroke="#1864ab" stroke-width="2" fill="none"></path></g></g><g stroke-linecap="round"><g transform="translate(1203.557350922143 541.2403209893048) rotate(0 22.319234116966072 0.43171889967931065)"><path d="M-0.23 -0.69 C7.19 -0.4, 36.78 0.78, 44.08 0.98 M-1.81 1.56 C6.05 1.59, 38.51 -0.11, 46.45 -0.63" stroke="#1864ab" stroke-width="2" fill="none"></path></g></g><g stroke-linecap="round"><g transform="translate(1211.3299275984057 550.43597744467) rotate(0 12.725566040684157 0.18587350140759895)"><path d="M-0.69 -0.66 C3.79 -0.82, 21.75 -1.4, 26.14 -1.19 M1.14 1.61 C5.62 1.57, 21.71 0.22, 25.71 -0.28" stroke="#1864ab" stroke-width="2" fill="none"></path></g></g><g stroke-linecap="round"><g transform="translate(1216.221540432187 556.870041204696) rotate(0 6.873054161252185 0.025533533719311663)"><path d="M-0.66 0.98 C1.43 1.23, 9.85 0.97, 12.32 0.84 M1.19 0.45 C3.65 0.4, 12.32 -1.19, 14.41 -1.02" stroke="#1864ab" stroke-width="2" fill="none"></path></g></g><g stroke-linecap="round"><g transform="translate(1322.9495805833903 591.6929003521841) rotate(0 -1.3559216005821781 -27.09257581989894)"><path d="M0.19 1.03 C-0.16 -8.33, -1.47 -45.82, -1.66 -55.21 M-1.17 0.52 C-1.77 -8.8, -2.82 -45, -2.9 -54.18" stroke="#1864ab" stroke-width="2" fill="none"></path></g><g transform="translate(1322.9495805833903 591.6929003521841) rotate(0 -1.3559216005821781 -27.09257581989894)"><path d="M8.62 -29.81 C1.82 -37.15, -1.64 -44.81, -2.4 -55.18 M6.31 -28.78 C3.32 -37.05, 1.89 -44.57, -3.38 -54.19" stroke="#1864ab" stroke-width="2" fill="none"></path></g><g transform="translate(1322.9495805833903 591.6929003521841) rotate(0 -1.3559216005821781 -27.09257581989894)"><path d="M-9.93 -29.42 C-10.5 -36.92, -7.72 -44.71, -2.4 -55.18 M-12.24 -28.39 C-9.61 -36.81, -5.41 -44.45, -3.38 -54.19" stroke="#1864ab" stroke-width="2" fill="none"></path></g></g><g transform="translate(1305.14500146523 510.74576358017003) rotate(0 20 12.5)"><text x="0" y="18" font-family="Virgil, Segoe UI Emoji" font-size="20px" fill="#1864ab" text-anchor="start" style="white-space: pre;" direction="ltr">3v3</text></g><g stroke-linecap="round"><g transform="translate(1129.9207892024053 495.4274453029461) rotate(0 0.6963188851445921 48.92657720116574)"><path d="M0.81 0.85 C0.79 16.97, -0.39 81.53, -0.46 97.6 M-0.22 0.25 C0.18 15.95, 1.87 80.06, 1.85 95.88" stroke="#1864ab" stroke-width="2" fill="none"></path></g></g><g stroke-linecap="round"><g transform="translate(897.946638207397 202.8106900958278) rotate(0 -0.41271384785164855 -13.602790825887134)"><path d="M-1.15 -0.75 C-1.55 -5.7, -1.48 -24.23, -1.57 -28.67 M0.44 1.47 C0.36 -3.41, 0.71 -22.29, 0.75 -27.44" stroke="#1864ab" stroke-width="2" fill="none"></path></g></g><g stroke-linecap="round"><g transform="translate(1053.2912018559355 164.38769961892865) rotate(0 -0.34365811435100113 35.90732484778354)"><path d="M-1.05 -1.13 C-0.91 11.14, -0.35 60.82, -0.08 72.94 M0.61 0.9 C0.62 12.83, -1.17 59.04, -1.29 70.94" stroke="#1864ab" stroke-width="2" fill="none"></path></g></g><g stroke-linecap="round"><g transform="translate(1089.6484401566572 163.5613987484577) rotate(0 -1.1416576548903095 53.1215072412222)"><path d="M-0.14 -0.52 C-0.21 17.31, -0.87 87.88, -0.92 105.84 M-1.67 1.83 C-1.9 19.85, -2.21 88.96, -2.14 106.76" stroke="#1864ab" stroke-width="2" fill="none"></path></g></g><g stroke-linecap="round"><g transform="translate(1086.7563871100087 269.32791016873915) rotate(0 -243.85201059926106 0.27067637784046816)"><path d="M0.75 -0.2 C-80.58 -0.02, -406.97 0.16, -488.45 0.52 M-0.31 -1.36 C-81.23 -0.94, -404.75 1.64, -486.23 1.9" stroke="#1864ab" stroke-width="2" fill="none"></path></g></g><g stroke-linecap="round"><g transform="translate(673.214656020063 299.49487427823226) rotate(0 0.5195796237973127 17.146650984652165)"><path d="M-0.76 0.98 C-0.79 6.57, -0.56 27.32, -0.36 32.51 M1.05 0.44 C1.37 6.3, 2 28.42, 1.74 33.85" stroke="#5c940d" stroke-width="2" fill="none"></path></g></g><g stroke-linecap="round"><g transform="translate(651.5641270927525 335.5790891570838) rotate(0 21.68110275061406 -0.09435934261762924)"><path d="M0.98 -1.16 C8.37 -1.1, 36.34 -0.61, 43.33 -0.37 M0.03 0.84 C7.33 1.14, 34.63 0.83, 42.19 0.98" stroke="#5c940d" stroke-width="2" fill="none"></path></g></g><g stroke-linecap="round"><g transform="translate(651.5641270927521 351.21558227125263) rotate(0 21.685890960186896 -0.4361662551940668)"><path d="M-1.16 -0.37 C6.38 -0.6, 36.81 -0.65, 44.54 -0.38 M0.42 -1.61 C7.85 -1.79, 36.04 0.59, 43.4 0.75" stroke="#5c940d" stroke-width="2" fill="none"></path></g></g><g stroke-linecap="round"><g transform="translate(672.8137202991869 352.4183894338813) rotate(0 0.2168057544660087 12.762064421930987)"><path d="M-0.37 -0.37 C-0.73 4.35, -1.32 22.48, -1.18 27.13 M1.64 -1.61 C1.57 2.83, 1.37 20.63, 1.12 25.15" stroke="#5c940d" stroke-width="2" fill="none"></path></g></g><g transform="translate(710.465453757134 322.4924451995977) rotate(0 19 25)"><text x="0" y="18" font-family="Virgil, Segoe UI Emoji" font-size="20px" fill="#1864ab" text-anchor="start" style="white-space: pre;" direction="ltr">C1</text><text x="0" y="43" font-family="Virgil, Segoe UI Emoji" font-size="20px" fill="#1864ab" text-anchor="start" style="white-space: pre;" direction="ltr">0.1u</text></g><g stroke-linecap="round"><g transform="translate(632.194111414016 301.6117963547549) rotate(0 87.39243948412792 -0.17724131842951607)"><path d="M-0.75 0.08 C28.66 0.25, 145.97 0.54, 175.54 0.6 M1.05 -0.92 C30.39 -1.02, 145.37 -0.84, 174.61 -0.93" stroke="#1864ab" stroke-width="2" fill="none"></path></g><g transform="translate(632.194111414016 301.6117963547549) rotate(0 87.39243948412792 -0.17724131842951607)"><path d="M146.56 9.4 C154.59 9.17, 160.52 3.18, 175.4 -0.97 M147.41 9.92 C157.46 5.2, 166.9 1.94, 173.79 -0.66" stroke="#1864ab" stroke-width="2" fill="none"></path></g><g transform="translate(632.194111414016 301.6117963547549) rotate(0 87.39243948412792 -0.17724131842951607)"><path d="M146.55 -11.12 C154.5 -6.82, 160.44 -8.28, 175.4 -0.97 M147.4 -10.61 C157.5 -7.61, 166.95 -3.16, 173.79 -0.66" stroke="#1864ab" stroke-width="2" fill="none"></path></g></g><g transform="translate(598.943484698954 423.31435471096063) rotate(270 18 9.5)"><text x="0" y="15" font-family="Helvetica, Segoe UI Emoji" font-size="16px" fill="#1864ab" text-anchor="start" style="white-space: pre;" direction="ltr">VDD</text></g><g stroke-linecap="round"><g transform="translate(671.295095484522 376.96874988784543) rotate(0 115.46794300213912 -0.6011403672993083)"><path d="M0.19 0.13 C38.43 -0.12, 191.39 -1.25, 229.97 -1.34 M-1.17 -0.84 C37.37 -0.93, 193.37 0.33, 232.1 0.07" stroke="#1864ab" stroke-width="2" fill="none"></path></g></g><g stroke-linecap="round"><g transform="translate(880.4730597871214 319.05773440641985) rotate(0 22.252648520575917 -0.41349343981423914)"><path d="M0.71 0.11 C8.23 -0.13, 37.4 -1.09, 44.88 -0.93 M-0.38 -0.87 C7.01 -1.04, 36.4 0.09, 44.01 0.12" stroke="#1864ab" stroke-width="2" fill="none"></path></g></g><g stroke-linecap="round"><g transform="translate(888.2456364633842 308.2533908617851) rotate(0 12.588121340327632 -0.07639670468621418)"><path d="M0.11 0.14 C4.07 0.16, 19.88 1.04, 24.24 0.84 M-1.29 -0.83 C2.99 -1.21, 21.9 -0.93, 26.46 -0.84" stroke="#1864ab" stroke-width="2" fill="none"></path></g></g><g stroke-linecap="round"><g transform="translate(893.1372492971652 296.68745462181107) rotate(0 6.5502210970536225 0.25998641215724305)"><path d="M0.14 -0.93 C2.41 -0.71, 12.3 1.2, 14.35 1.45 M-1.25 1.2 C0.88 1.1, 11.17 -0.23, 13.84 -0.1" stroke="#1864ab" stroke-width="2" fill="none"></path></g></g><g stroke-linecap="round"><g transform="translate(903.0675893012154 375.832846722832) rotate(0 -0.47589361111829476 -26.983466894635086)"><path d="M-0.93 0.84 C-1.18 -8.32, -1.15 -45.71, -1.37 -54.81 M0.78 0.23 C0.47 -8.82, -1.12 -45.06, -1.74 -53.83" stroke="#1864ab" stroke-width="2" fill="none"></path></g></g><g transform="translate(764.6935326882177 354.363051393293) rotate(0 17 9.5)"><text x="0" y="15" font-family="Helvetica, Segoe UI Emoji" font-size="16px" fill="#1864ab" text-anchor="start" style="white-space: pre;" direction="ltr">VSS</text></g><g transform="translate(815.6623974370334 306.03917743296597) rotate(0 20 12.5)"><text x="0" y="18" font-family="Virgil, Segoe UI Emoji" font-size="20px" fill="#1864ab" text-anchor="start" style="white-space: pre;" direction="ltr">3v3</text></g><g stroke-linecap="round"><g transform="translate(913.1753365896757 477.6553668874321) rotate(0 20.065013003317745 -2.1058951566292308)"><path d="M-0.58 -0.5 C6.28 -0.96, 33.9 -1.82, 40.71 -2.17 M1.32 -1.81 C8.08 -2.63, 33.56 -3.25, 39.92 -3.71" stroke="#5c940d" stroke-width="2" fill="none"></path></g></g><g stroke-linecap="round"><g transform="translate(914.9083502889052 474.1905337962424) rotate(0 8.294665535987576 -14.32100856136185)"><path d="M0.66 -1.19 C3.35 -6.15, 14.18 -24.88, 17.04 -29.45 M-0.45 0.81 C1.95 -3.97, 12.85 -22.63, 15.79 -27.83" stroke="#5c940d" stroke-width="2" fill="none"></path></g></g><g stroke-linecap="round"><g transform="translate(935.2045364298914 445.14544983330086) rotate(0 7.147281188534066 14.32473929624463)"><path d="M0.25 0.74 C2.67 5.09, 12.68 22.89, 15.38 27.17 M-1.09 0.09 C1.11 5.12, 11.56 24.05, 14.44 28.56" stroke="#5c940d" stroke-width="2" fill="none"></path></g></g><g stroke-linecap="round"><g transform="translate(909.7021644769446 444.25606763333656) rotate(0 22.677841475343087 -0.8913767728451063)"><path d="M-0.66 0.55 C7.04 0.32, 38.22 -0.4, 46.01 -0.7 M1.2 -0.2 C8.72 -0.82, 37.52 -1.8, 44.85 -2.34" stroke="#5c940d" stroke-width="2" fill="none"></path></g></g><g stroke-linecap="round" transform="translate(895.5792300800944 424.10834076574713) rotate(0 38.378359076600475 35.021552370107)"><path d="M28.49 1.29 C35.29 -0.95, 46.05 -0.72, 53.27 1.73 C60.49 4.18, 68.02 10.02, 71.79 15.99 C75.57 21.95, 76.7 30.68, 75.94 37.55 C75.17 44.42, 71.92 52.04, 67.19 57.21 C62.46 62.38, 54.88 66.69, 47.56 68.56 C40.23 70.43, 30.21 71.02, 23.24 68.42 C16.28 65.82, 9.71 58.87, 5.77 52.96 C1.82 47.04, -1.03 39.73, -0.44 32.92 C0.16 26.11, 3.41 17.46, 9.33 12.1 C15.24 6.74, 29.41 2.72, 35.06 0.77 C40.71 -1.18, 43.01 0.01, 43.25 0.38 M26.68 2.33 C33.06 0.29, 42.42 0.24, 49.57 2.49 C56.72 4.74, 65.29 10.46, 69.6 15.83 C73.9 21.2, 75.58 28.18, 75.41 34.71 C75.23 41.25, 72.75 49.36, 68.54 55.06 C64.33 60.76, 57.39 66.85, 50.15 68.91 C42.92 70.98, 32.5 69.54, 25.13 67.47 C17.76 65.39, 10.23 61.85, 5.94 56.46 C1.65 51.08, -0.88 42.24, -0.6 35.18 C-0.32 28.11, 3.15 19.46, 7.6 14.08 C12.04 8.7, 22.65 4.66, 26.06 2.9 C29.47 1.14, 27.82 3.11, 28.07 3.53" stroke="#5c940d" stroke-width="2" fill="none"></path></g><g stroke-linecap="round"><g transform="translate(932.8629946049639 441.58260542515035) rotate(0 -0.5250640536663695 -16.250417276986425)"><path d="M0.44 0.26 C0.04 -5, -1.34 -25.66, -1.61 -30.81 M-0.78 -0.64 C-0.9 -6.35, 0.79 -27.42, 0.54 -32.77" stroke="#5c940d" stroke-width="2" fill="none"></path></g></g><g stroke-linecap="round"><g transform="translate(819.280274318843 411.5487130418011) rotate(0 56.72787770881746 -0.9956195131986902)"><path d="M-1.09 0.2 C17.85 0.09, 95.21 -0.28, 114.55 -0.24 M0.54 -0.73 C19.22 -1.27, 94.58 -2.09, 113.53 -2.2" stroke="#1864ab" stroke-width="2" fill="none"></path></g></g><g stroke-linecap="round" transform="translate(928.6598445277658 528.4842773825355) rotate(0 6.26613052385386 22.307424664919722)"><path d="M3.13 0 M3.13 0 C4.29 -0.47, 6.13 0.39, 9.4 0 M3.13 0 C5.21 -0.09, 7.48 0.19, 9.4 0 M9.4 0 C10.94 1.09, 14.47 -0.18, 12.53 3.13 M9.4 0 C10.59 2.16, 10.56 -0.78, 12.53 3.13 M12.53 3.13 C10.78 15.24, 13.26 29.19, 12.53 41.48 M12.53 3.13 C12.54 13.26, 12.26 21.32, 12.53 41.48 M12.53 41.48 C10.73 45.09, 10.06 43.34, 9.4 44.61 M12.53 41.48 C13.01 42.78, 12.46 43.53, 9.4 44.61 M9.4 44.61 C7.21 45.12, 4.22 45.08, 3.13 44.61 M9.4 44.61 C7.06 44.28, 4.95 44.82, 3.13 44.61 M3.13 44.61 C1.16 46.04, -1.84 44.69, 0 41.48 M3.13 44.61 C3.3 42.9, -1.85 41.88, 0 41.48 M0 41.48 C1.68 28.9, -1.01 18.52, 0 3.13 M0 41.48 C-0.41 32.5, 0.21 22.35, 0 3.13 M0 3.13 C0.64 1.94, 1.15 -1.24, 3.13 0 M0 3.13 C0.5 -0.39, 0.8 -1.78, 3.13 0" stroke="#5c940d" stroke-width="2" fill="none"></path></g><g transform="translate(958.6732217427972 530.5936934660331) rotate(0 13.999999999999943 25)"><text x="0" y="18" font-family="Virgil, Segoe UI Emoji" font-size="20px" fill="#1864ab" text-anchor="start" style="white-space: pre;" direction="ltr">R3</text><text x="0" y="43" font-family="Virgil, Segoe UI Emoji" font-size="20px" fill="#1864ab" text-anchor="start" style="white-space: pre;" direction="ltr">1K</text></g><g stroke-linecap="round"><g transform="translate(935.1018638208546 508.4556082557861) rotate(0 0.006926366585048527 10.900866744439355)"><path d="M-0.86 0.81 C-0.94 4.45, -0.08 18.17, -0.14 21.62 M0.88 0.19 C0.69 3.48, -0.18 15.91, -0.68 19.71" stroke="#5c940d" stroke-width="2" fill="none"></path></g></g><g stroke-linecap="round"><g transform="translate(934.0978037819731 574.407407015254) rotate(0 0.7054684548099317 8.459535302981777)"><path d="M0.81 0.78 C1.12 3.49, 1.52 12.92, 1.64 15.39 M-0.23 0.15 C-0.01 3.11, 0.71 13.98, 0.91 16.77" stroke="#5c940d" stroke-width="2" fill="none"></path></g></g><g stroke-linecap="round"><g transform="translate(933.9551361461766 478.152606615731) rotate(0 0.4902970404028224 16.302614205932684)"><path d="M-0.66 -0.87 C-0.41 4.61, 1.38 26.65, 1.64 32.17 M1.19 1.28 C1.33 6.99, 1.18 28.14, 0.98 33.48" stroke="#5c940d" stroke-width="2" fill="none"></path></g></g><g transform="translate(909.6050694507796 379.8763783735468) rotate(0 47.5 12.5)"><text x="0" y="18" font-family="Virgil, Segoe UI Emoji" font-size="20px" fill="#d9480f" text-anchor="start" style="white-space: pre;" direction="ltr">ACT LED</text></g><g transform="translate(971.5965655363325 472.8425746656405) rotate(0 24 12.5)"><text x="0" y="18" font-family="Virgil, Segoe UI Emoji" font-size="20px" fill="#1864ab" text-anchor="start" style="white-space: pre;" direction="ltr">LED1</text></g><g transform="translate(789.8239230827795 425.1138274625547) rotate(270 15.5 9.5)"><text x="0" y="15" font-family="Helvetica, Segoe UI Emoji" font-size="16px" fill="#1864ab" text-anchor="start" style="white-space: pre;" direction="ltr">PA5</text></g><g stroke-linecap="round"><g transform="translate(936.0881872278628 591.7963629235113) rotate(0 193.27676409283794 0.558845900871404)"><path d="M-0.62 0.88 C63.76 0.72, 322.61 0.08, 387.18 -0.18 M1.25 0.3 C65.5 0.26, 322.62 1.29, 386.81 1.3" stroke="#1864ab" stroke-width="2" fill="none"></path></g></g><g stroke-linecap="round"><g transform="translate(1222.8563538581636 270.97939662941457) rotate(0 -0.41290286710852797 19.153902967585584)"><path d="M1 -0.86 C0.75 5.7, -1.54 32.59, -1.83 39.17 M0.07 1.3 C0.24 7.5, 0.73 30.81, 0.5 37.24" stroke="#1864ab" stroke-width="1" fill="none"></path></g></g><g stroke-linecap="round"><g transform="translate(737.0982040796755 821.003477483102) rotate(0 -0.1595982246026324 6.361048240491982)"><path d="M0.31 0.78 C0.47 2.86, 0.82 9.37, 0.59 11.32 M-0.99 0.14 C-0.88 2.49, -0.31 10.86, 0.08 12.58" stroke="#1864ab" stroke-width="2" fill="none"></path></g></g><g stroke-linecap="round"><g transform="translate(973.5474028457838 440.20570563846223) rotate(0 11.47907611913422 -12.693922019620075)"><path d="M0.93 0.14 C4.56 -3.9, 17.3 -19.59, 20.71 -23.58 M-0.04 -0.83 C4.06 -5.3, 19.57 -21.93, 23 -25.53" stroke="#5c940d" stroke-width="2" fill="none"></path></g><g transform="translate(973.5474028457838 440.20570563846223) rotate(0 11.47907611913422 -12.693922019620075)"><path d="M16.85 -11.83 C18.35 -14.1, 19.37 -16.59, 23.49 -26.95 M16.17 -11.26 C17.59 -14.21, 20.21 -18.51, 23 -26.05" stroke="#5c940d" stroke-width="2" fill="none"></path></g><g transform="translate(973.5474028457838 440.20570563846223) rotate(0 11.47907611913422 -12.693922019620075)"><path d="M8.83 -19.37 C12.07 -20.1, 14.78 -21, 23.49 -26.95 M8.15 -18.79 C11.5 -19.87, 16.07 -22.35, 23 -26.05" stroke="#5c940d" stroke-width="2" fill="none"></path></g></g><g stroke-linecap="round"><g transform="translate(978.4094179299175 457.9933438471246) rotate(0 11.093317802496244 -11.927948932727446)"><path d="M-0.52 -0.97 C3.14 -4.72, 19.16 -19.36, 22.71 -23.23 M1.4 1.14 C4.96 -2.9, 18.74 -20.96, 22.39 -24.99" stroke="#5c940d" stroke-width="2" fill="none"></path></g><g transform="translate(978.4094179299175 457.9933438471246) rotate(0 11.093317802496244 -11.927948932727446)"><path d="M15.75 -8.22 C19.96 -16.23, 20.57 -21.02, 23.78 -25.09 M17.63 -9.52 C17.96 -14.44, 20.04 -17.53, 22.41 -25.62" stroke="#5c940d" stroke-width="2" fill="none"></path></g><g transform="translate(978.4094179299175 457.9933438471246) rotate(0 11.093317802496244 -11.927948932727446)"><path d="M7.25 -15.21 C14.46 -20.68, 18.11 -22.97, 23.78 -25.09 M9.13 -16.51 C11.83 -19.49, 16.26 -20.65, 22.41 -25.62" stroke="#5c940d" stroke-width="2" fill="none"></path></g></g></svg>